<?xml version="1.0" encoding="UTF-8"?>
<!DOCTYPE svg  PUBLIC '-//W3C//DTD SVG 1.1//EN'  'http://www.w3.org/Graphics/SVG/1.1/DTD/svg11.dtd'>
<svg version="1.1" viewBox="0 0 640 640" xmlns="http://www.w3.org/2000/svg" xmlns:xlink="http://www.w3.org/1999/xlink">
<defs>
<path id="mx" d="m0 626.92h23.77v13.08h-23.77v-13.08z"/>
<path id="nz" d="m631 625h9v15h-9v-15z"/>
<path id="mi" d="m23.77 604.25h34v35.75h-34v-35.75z"/>
<path id="of" d="m56.77 533.77h53v106.23h-53v-106.23z"/>
<path id="mp" d="m107.6 579.18h8.02v61.09h-8.02v-61.09z"/>
<path id="mz" d="m109.49 589.18h34v50.82h-34v-50.82z"/>
<path id="nb" d="m118.15 427h98.43v213h-98.43v-213z"/>
<path id="nh" d="m210.51 505.62h8.02v134.38h-8.02v-134.38z"/>
<path id="oa" d="m212.36 570h17v70h-17v-70z"/>
<path id="ny" d="m232.43 533.77h53v106.23h-53v-106.23z"/>
<path id="mv" d="m205.27 640h27.16l53-70-56.07 14.75-24.09 55.25z"/>
<path id="mw" d="m236.68 435.75h53v204.25h-53v-204.25z"/>
<path id="mu" d="m1.78 624.86h23.77v13.09h-23.77v-13.09z"/>
<path id="nn" d="m3 612.36h20v25h-20v-25z"/>
<path id="mk" d="m5.87 609l1.02-2.11h6.79l0.44-2.33 1.23-0.56v2.89h2.71l0.62 1.67 2.32 0.44v3.78h-16l0.87-3.78z"/>
<path id="md" d="m23.77 592.36l31 0.28v12.72h-31v-13z"/>
<path id="np" d="m24.77 593.51l1.48-1.49 16.03-5.74-0.84-7.5 3.48 2.78v3.98h8.25l-0.58 8.24h2.18l-30-0.27z"/>
<path id="na" d="m609 640v-27.58h3.71v-4.82-8.79-5.66l1.44 1.32v3.02h9.57l6.24 2.65h2.04v39.86h-20.9-2.1z"/>
<path id="nk" d="m583 640.36l0.56-46.99h3.47v-18.02l5.44-0.85 0.85-1.34h4.24v-2.8h1.41v2.8h2.83v1.34h4.52l-0.42 3.65h4.1v62.21h-23.47-3.53z"/>
<path id="nd" d="m543.95 640.27l-3.35-115.27 23.86-21.07v-35.11l5.59-1.17v-21.07h3.36v21.07l3.73 1.17v-41.55h2.98v59.69l4.48-5.85v159.16h-32.26-8.39z"/>
<path id="mn" d="m69.5 482.65v32.82l10.85-2.23v-2.5l8.34-1.78 1.11 2.61 5.84-0.83v-31.15h2.79v31.15l3.33 15.85h2.51v8.9h-42l4.17-20.58 0.83-31.71"/>
<path id="ms" d="m135.29 409.56v-10.07h5.78v5.33l10.44-8.29 32.61-0.59v-3.26h11.57v-4.44-35.55h3.53v35.55h4.18v4.44h3.54v3.85h6.74l2.9 0.89v30.27h-98l16.71-18.13z"/>
<path id="mt" d="m236.68 434l3.16-1.1 1.48-2.1v-4h5.26v-11.8h2.32v11.8h14.31v4h3.37l1.47-1.69h2.32l0.63 1.69h13.9l1.68 2.1 2.1 1.1v2.69h-52v-2.69z"/>
<path id="mj" d="m509.38 640l0.92-44.89h2.91v-17.7l5.84-4.92 1.1-58.56v-9.12h2v9.12h6.57v19.88h3.83l2.74 18.79v19.89h4.37v22.07h6.02v45.44l-33.29-0.07-3.01 0.07z"/>
<path id="nt" d="m374.38 428.99h52v213h-52v-213z"/>
<path id="nv" d="m203.92 578.78l-4.4-6.34v-4.51h2.77l2.61-10.85 1.63-6.76h2.28l-0.65-2.05h3.75l-0.98-3.89h5.22v-18.22h-1.63v-4.51h5.22v4.51h-1.8v18.22h4.73l-1.95 3.89h1.95l-0.98 2.66h1.96l1.47 6.76 0.98 10.96h3.42v3.25l-23.8-0.28-1.8 7.16z"/>
<path id="nm" d="m377.38 424.57h5.4l1.93-10.79 3.21-11.06v-4.11h3.86l-2.32-4.62h10.54v-21.85h2.57v21.85h9.76l-2.31 4.62h3.09v4.63l3.34 10.54 2.31 10.79h4.62v6.17l-46-0.84v-5.33z"/>
<path id="me" d="m276.38 570.27h98v70h-98v-70z"/>
<path id="ne" d="m409.9 540h101.54v100h-101.54v-100z"/>
<path id="my" d="m294.23 496.71h92.46v143.29h-92.46v-143.29z"/>
<path id="mb" d="m304.88 462.08h58.85v143.28h-58.85v-143.28z"/>
<path id="ni" d="m314.86 393.24h41v75h-41v-75z"/>
<path id="nc" d="m320 375h34v35.75h-34v-35.75z"/>
<path id="mg" d="m112.22 586.28l0.38-15.69-2.71-2.87v-4.78l-0.63-0.16v-2.87h-0.39v2.87l-0.42 0.16v-5.66h-0.34v8.13l-0.51-0.8v21.67h3.67 0.95z"/>
<path id="mo" d="m307.1 465l-0.1-21h0.51v4.8h0.52v0.93l2.97 0.12-0.11 15.15h-3.25-0.54z"/>
<path id="ob" d="m330 363h22v12.21h-22v-12.21z"/>
<path id="nj" d="m326 353h27v11h-27v-11z"/>
<path id="nw" d="m330 351h5v10h-5v-10z"/>
<path id="mm" d="m475.44 543.02v-88.94h3.78l-2-24.07 4.72 2.91h6.77v-24.9h3.25v24.9h3.24l3.25 6.64v11.2h6.49l-2.74 5.4v57.68l2.74 0.83v9.54h3.25l3.25 6.64v12.17h-29.5-6.5z"/>
<path id="oc" d="m478.83 541.57l-0.91-44.89h-2.92v-17.7l-5.84-4.92-1.09-58.56v-9.12h-2.01v9.12h-6.57v19.89h-3.83l-2.74 18.79v19.88h-4.37v22.07h-6.02v45.44l33.29-0.07 3.01 0.07z"/>
<path id="nl" d="m435.08 549.73l-4.4-6.35v-4.5h2.77l2.61-10.85 1.63-6.76h2.28l-0.65-2.05h3.75l-0.98-3.89h5.22v-18.22h-1.63v-4.51h5.21v4.51h-1.79v18.22h4.73l-1.96 3.89h1.96l-0.98 2.66h1.96l1.47 6.76 0.97 10.96h3.43v3.25l-23.81-0.28-1.79 7.16z"/>
<path id="nq" d="m448.98 553.84l4.4-6.35v-4.5h-2.77l-2.61-10.85-1.63-6.76h-2.28l0.65-2.05h-3.75l0.98-3.89h-5.22v-18.22h1.63v-4.51h-5.21v4.51h1.79v18.22h-4.73l1.96 3.89h-1.96l0.98 2.66h-1.96l-1.46 6.76-0.98 10.96h-3.43v3.25l23.81-0.28 1.79 7.16z"/>
<path id="ga" d="m349.37 399.04c1.04 0 1.87 0.84 1.87 1.87v4.82c0 1.04-0.83 1.88-1.87 1.88h-1.25c-1.04 0-1.88-0.84-1.88-1.88v-4.82c0-1.03 0.84-1.87 1.88-1.87h1.25z"/>
<path id="hp" d="m320.25 410.56c1.03 0 1.87 0.84 1.87 1.87v4.83c0 1.03-0.84 1.87-1.87 1.87h-1.26c-1.03 0-1.87-0.84-1.87-1.87v-4.83c0-1.03 0.84-1.87 1.87-1.87h1.26z"/>
<path id="jz" d="m329.86 410.56c1.04 0 1.88 0.84 1.88 1.87v4.83c0 1.03-0.84 1.87-1.88 1.87h-1.25c-1.04 0-1.87-0.84-1.87-1.87v-4.83c0-1.03 0.83-1.87 1.87-1.87h1.25z"/>
<path id="ij" d="m349.37 410.56c1.04 0 1.87 0.84 1.87 1.87v4.83c0 1.03-0.83 1.87-1.87 1.87h-1.25c-1.04 0-1.88-0.84-1.88-1.87v-4.83c0-1.03 0.84-1.87 1.88-1.87h1.25z"/>
<path id="hb" d="m329.86 435.44c1.04 0 1.88 0.83 1.88 1.87v4.82c0 1.03-0.84 1.87-1.88 1.87h-1.25c-1.04 0-1.87-0.84-1.87-1.87v-4.82c0-1.04 0.83-1.87 1.87-1.87h1.25z"/>
<path id="kr" d="m349.37 422.72c1.04 0 1.87 0.83 1.87 1.87v4.82c0 1.04-0.83 1.87-1.87 1.87h-1.25c-1.04 0-1.88-0.83-1.88-1.87v-4.82c0-1.04 0.84-1.87 1.88-1.87h1.25z"/>
<path id="jf" d="m320.25 399.04c1.03 0 1.87 0.84 1.87 1.87v4.82c0 1.04-0.84 1.88-1.87 1.88h-1.26c-1.03 0-1.87-0.84-1.87-1.88v-4.82c0-1.03 0.84-1.87 1.87-1.87h1.26z"/>
<path id="fe" d="m349.37 448.74c1.04 0 1.87 0.84 1.87 1.88v4.82c0 1.03-0.83 1.87-1.87 1.87h-1.25c-1.04 0-1.88-0.84-1.88-1.87v-4.82c0-1.04 0.84-1.88 1.88-1.88h1.25z"/>
<path id="az" d="m340.34 422.72c1.04 0 1.87 0.83 1.87 1.87v4.82c0 1.04-0.83 1.87-1.87 1.87h-1.26c-1.03 0-1.87-0.83-1.87-1.87v-4.82c0-1.04 0.84-1.87 1.87-1.87h1.26z"/>
<path id="ia" d="m349.37 436.69c1.04 0 1.87 0.84 1.87 1.88v4.82c0 1.03-0.83 1.87-1.87 1.87h-1.25c-1.04 0-1.88-0.84-1.88-1.87v-4.82c0-1.04 0.84-1.88 1.88-1.88h1.25z"/>
<path id="bc" d="m340.34 448.74c1.04 0 1.87 0.84 1.87 1.88v4.82c0 1.03-0.83 1.87-1.87 1.87h-1.26c-1.03 0-1.87-0.84-1.87-1.87v-4.82c0-1.04 0.84-1.88 1.87-1.88h1.26z"/>
<path id="bm" d="m320.25 435.75c1.03 0 1.87 0.84 1.87 1.88v4.82c0 1.03-0.84 1.87-1.87 1.87h-1.26c-1.03 0-1.87-0.84-1.87-1.87v-4.82c0-1.04 0.84-1.88 1.87-1.88h1.26z"/>
<path id="gt" d="m320.25 448.74c1.03 0 1.87 0.84 1.87 1.88v4.82c0 1.03-0.84 1.87-1.87 1.87h-1.26c-1.03 0-1.87-0.84-1.87-1.87v-4.82c0-1.04 0.84-1.88 1.87-1.88h1.26z"/>
<path id="dp" d="m340.34 410.56c1.04 0 1.87 0.84 1.87 1.87v4.83c0 1.03-0.83 1.87-1.87 1.87h-1.26c-1.03 0-1.87-0.84-1.87-1.87v-4.83c0-1.03 0.84-1.87 1.87-1.87h1.26z"/>
<path id="fp" d="m330.24 448.74c1.04 0 1.88 0.84 1.88 1.88v4.82c0 1.03-0.84 1.87-1.88 1.87h-1.25c-1.04 0-1.87-0.84-1.87-1.87v-4.82c0-1.04 0.83-1.88 1.87-1.88h1.25z"/>
<path id="hl" d="m320.25 422.17c1.03 0 1.87 0.84 1.87 1.87v4.83c0 1.03-0.84 1.87-1.87 1.87h-1.26c-1.03 0-1.87-0.84-1.87-1.87v-4.83c0-1.03 0.84-1.87 1.87-1.87h1.26z"/>
<path id="ll" d="m326.25 379.29c1.03 0 1.87 0.84 1.87 1.87v4.83c0 1.03-0.84 1.87-1.87 1.87h-1.26c-1.03 0-1.87-0.84-1.87-1.87v-4.83c0-1.03 0.84-1.87 1.87-1.87h1.26z"/>
<path id="fu" d="m336.87 379.29c1.03 0 1.87 0.84 1.87 1.87v4.83c0 1.03-0.84 1.87-1.87 1.87h-1.26c-1.03 0-1.87-0.84-1.87-1.87v-4.83c0-1.03 0.84-1.87 1.87-1.87h1.26z"/>
<path id="gb" d="m349.37 468.24c1.04 0 1.87 0.84 1.87 1.87v4.82c0 1.04-0.83 1.88-1.87 1.88h-1.25c-1.04 0-1.88-0.84-1.88-1.88v-4.82c0-1.03 0.84-1.87 1.88-1.87h1.25z"/>
<path id="kq" d="m357.13 468.24c1.03 0 1.87 0.84 1.87 1.87v4.82c0 1.04-0.84 1.88-1.87 1.88h-1.26c-1.03 0-1.87-0.84-1.87-1.88v-4.82c0-1.03 0.84-1.87 1.87-1.87h1.26z"/>
<path id="cr" d="m339.75 468.24c1.03 0 1.87 0.84 1.87 1.87v4.82c0 1.04-0.84 1.88-1.87 1.88h-1.26c-1.03 0-1.87-0.84-1.87-1.88v-4.82c0-1.03 0.84-1.87 1.87-1.87h1.26z"/>
<path id="dc" d="m349.37 479.59c1.04 0 1.87 0.84 1.87 1.87v4.82c0 1.04-0.83 1.88-1.87 1.88h-1.25c-1.04 0-1.88-0.84-1.88-1.88v-4.82c0-1.03 0.84-1.87 1.88-1.87h1.25z"/>
<path id="ju" d="m357.13 479.59c1.03 0 1.87 0.84 1.87 1.87v4.82c0 1.04-0.84 1.88-1.87 1.88h-1.26c-1.03 0-1.87-0.84-1.87-1.88v-4.82c0-1.03 0.84-1.87 1.87-1.87h1.26z"/>
<path id="dq" d="m89.74 581.44c0.64 0 1.16 0.52 1.16 1.17v7.69c0 0.65-0.52 1.17-1.16 1.17h-0.78c-0.65 0-1.17-0.52-1.17-1.17v-7.69c0-0.65 0.52-1.17 1.17-1.17h0.78z"/>
<path id="bt" d="m89.74 595.34c0.64 0 1.16 0.52 1.16 1.16v7.7c0 0.64-0.52 1.16-1.16 1.16h-0.78c-0.65 0-1.17-0.52-1.17-1.16v-7.7c0-0.64 0.52-1.16 1.17-1.16h0.78z"/>
<path id="ce" d="m83.6 581.44c0.65 0 1.17 0.52 1.17 1.17v7.69c0 0.65-0.52 1.17-1.17 1.17h-0.78c-0.64 0-1.16-0.52-1.16-1.17v-7.69c0-0.65 0.52-1.17 1.16-1.17h0.78z"/>
<path id="cd" d="m83.6 595.34c0.65 0 1.17 0.52 1.17 1.16v7.7c0 0.64-0.52 1.16-1.17 1.16h-0.78c-0.64 0-1.16-0.52-1.16-1.16v-7.7c0-0.64 0.52-1.16 1.16-1.16h0.78z"/>
<path id="aq" d="m89.74 552.51c0.64 0 1.16 0.52 1.16 1.16v7.7c0 0.64-0.52 1.16-1.16 1.16h-0.78c-0.65 0-1.17-0.52-1.17-1.16v-7.7c0-0.64 0.52-1.16 1.17-1.16h0.78z"/>
<path id="kt" d="m89.74 566.41c0.64 0 1.16 0.52 1.16 1.16v7.7c0 0.64-0.52 1.16-1.16 1.16h-0.78c-0.65 0-1.17-0.52-1.17-1.16v-7.7c0-0.64 0.52-1.16 1.17-1.16h0.78z"/>
<path id="ek" d="m83.6 552.51c0.65 0 1.17 0.52 1.17 1.16v7.7c0 0.64-0.52 1.16-1.17 1.16h-0.78c-0.64 0-1.16-0.52-1.16-1.16v-7.7c0-0.64 0.52-1.16 1.16-1.16h0.78z"/>
<path id="ba" d="m83.6 566.41c0.65 0 1.17 0.52 1.17 1.16v7.7c0 0.64-0.52 1.16-1.17 1.16h-0.78c-0.64 0-1.16-0.52-1.16-1.16v-7.7c0-0.64 0.52-1.16 1.16-1.16h0.78z"/>
<path id="gy" d="m77.99 581.44c0.64 0 1.16 0.52 1.16 1.17v7.69c0 0.65-0.52 1.17-1.16 1.17h-0.79c-0.64 0-1.16-0.52-1.16-1.17v-7.69c0-0.65 0.52-1.17 1.16-1.17h0.79z"/>
<path id="lc" d="m77.99 595.34c0.64 0 1.16 0.52 1.16 1.16v7.7c0 0.64-0.52 1.16-1.16 1.16h-0.79c-0.64 0-1.16-0.52-1.16-1.16v-7.7c0-0.64 0.52-1.16 1.16-1.16h0.79z"/>
<path id="iq" d="m71.85 581.44c0.64 0 1.17 0.52 1.17 1.17v7.69c0 0.65-0.53 1.17-1.17 1.17h-0.78c-0.64 0-1.17-0.52-1.17-1.17v-7.69c0-0.65 0.53-1.17 1.17-1.17h0.78z"/>
<path id="n" d="m71.85 595.34c0.64 0 1.17 0.52 1.17 1.16v7.7c0 0.64-0.53 1.16-1.17 1.16h-0.78c-0.64 0-1.17-0.52-1.17-1.16v-7.7c0-0.64 0.53-1.16 1.17-1.16h0.78z"/>
<path id="fg" d="m77.99 552.51c0.64 0 1.16 0.52 1.16 1.16v7.7c0 0.64-0.52 1.16-1.16 1.16h-0.79c-0.64 0-1.16-0.52-1.16-1.16v-7.7c0-0.64 0.52-1.16 1.16-1.16h0.79z"/>
<path id="ke" d="m89.74 539.06c0.64 0 1.16 0.52 1.16 1.17v7.69c0 0.65-0.52 1.17-1.16 1.17h-0.78c-0.65 0-1.17-0.52-1.17-1.17v-7.69c0-0.65 0.52-1.17 1.17-1.17h0.78z"/>
<path id="km" d="m83.6 539.06c0.65 0 1.17 0.52 1.17 1.17v7.69c0 0.65-0.52 1.17-1.17 1.17h-0.78c-0.64 0-1.16-0.52-1.16-1.17v-7.69c0-0.65 0.52-1.17 1.16-1.17h0.78z"/>
<path id="fz" d="m77.99 539.06c0.64 0 1.16 0.52 1.16 1.17v7.69c0 0.65-0.52 1.17-1.16 1.17h-0.79c-0.64 0-1.16-0.52-1.16-1.17v-7.69c0-0.65 0.52-1.17 1.16-1.17h0.79z"/>
<path id="ge" d="m71.85 539.06c0.64 0 1.17 0.52 1.17 1.17v7.69c0 0.65-0.53 1.17-1.17 1.17h-0.78c-0.64 0-1.17-0.52-1.17-1.17v-7.69c0-0.65 0.53-1.17 1.17-1.17h0.78z"/>
<path id="dd" d="m94.16 581.38c-0.64 0-1.16 0.52-1.16 1.17v7.69c0 0.65 0.52 1.17 1.16 1.17h0.78c0.65 0 1.17-0.52 1.17-1.17v-7.69c0-0.65-0.52-1.17-1.17-1.17h-0.78z"/>
<path id="ln" d="m94.16 595.28c-0.64 0-1.16 0.52-1.16 1.16v7.7c0 0.64 0.52 1.16 1.16 1.16h0.78c0.65 0 1.17-0.52 1.17-1.16v-7.7c0-0.64-0.52-1.16-1.17-1.16h-0.78z"/>
<path id="gk" d="m522.59 558.45c-0.68 0-1.22 0.55-1.22 1.22v2.41c0 0.67 0.54 1.21 1.22 1.21h1.75c0.67 0 1.22-0.54 1.22-1.21v-2.41c0-0.67-0.55-1.22-1.22-1.22h-1.75z"/>
<path id="lg" d="m522.59 565.16c-0.68 0-1.22 0.55-1.22 1.22v2.4c0 0.67 0.54 1.22 1.22 1.22h1.75c0.67 0 1.22-0.55 1.22-1.22v-2.4c0-0.67-0.55-1.22-1.22-1.22h-1.75z"/>
<path id="i" d="m94.16 552.45c-0.64 0-1.16 0.52-1.16 1.16v7.7c0 0.64 0.52 1.16 1.16 1.16h0.78c0.65 0 1.17-0.52 1.17-1.16v-7.7c0-0.64-0.52-1.16-1.17-1.16h-0.78z"/>
<path id="ah" d="m94.16 566.35c-0.64 0-1.16 0.52-1.16 1.16v7.7c0 0.64 0.52 1.16 1.16 1.16h0.78c0.65 0 1.17-0.52 1.17-1.16v-7.7c0-0.64-0.52-1.16-1.17-1.16h-0.78z"/>
<path id="lk" d="m522.59 544.49c-0.68 0-1.22 0.55-1.22 1.22v2.4c0 0.67 0.54 1.22 1.22 1.22h1.75c0.67 0 1.22-0.55 1.22-1.22v-2.4c0-0.67-0.55-1.22-1.22-1.22h-1.75z"/>
<path id="ey" d="m522.59 551.2c-0.68 0-1.22 0.54-1.22 1.22v2.4c0 0.67 0.54 1.22 1.22 1.22h1.75c0.67 0 1.22-0.55 1.22-1.22v-2.4c0-0.68-0.55-1.22-1.22-1.22h-1.75z"/>
<path id="as" d="m530.15 558.45c-0.68 0-1.22 0.55-1.22 1.22v2.41c0 0.67 0.54 1.21 1.22 1.21h1.75c0.67 0 1.21-0.54 1.21-1.21v-2.41c0-0.67-0.54-1.22-1.21-1.22h-1.75z"/>
<path id="fn" d="m530.15 565.16c-0.68 0-1.22 0.55-1.22 1.22v2.4c0 0.67 0.54 1.22 1.22 1.22h1.75c0.67 0 1.21-0.55 1.21-1.22v-2.4c0-0.67-0.54-1.22-1.21-1.22h-1.75z"/>
<path id="au" d="m308.13 481.45c-0.68 0-1.22 0.55-1.22 1.22v2.4c0 0.68 0.54 1.22 1.22 1.22h1.75c0.67 0 1.21-0.54 1.21-1.22v-2.4c0-0.67-0.54-1.22-1.21-1.22h-1.75z"/>
<path id="gj" d="m530.15 544.49c-0.68 0-1.22 0.55-1.22 1.22v2.4c0 0.67 0.54 1.22 1.22 1.22h1.75c0.67 0 1.21-0.55 1.21-1.22v-2.4c0-0.67-0.54-1.22-1.21-1.22h-1.75z"/>
<path id="hm" d="m94.16 539c-0.64 0-1.16 0.52-1.16 1.17v7.69c0 0.65 0.52 1.17 1.16 1.17h0.78c0.65 0 1.17-0.52 1.17-1.17v-7.69c0-0.65-0.52-1.17-1.17-1.17h-0.78z"/>
<path id="li" d="m522.59 538c-0.68 0-1.22 0.55-1.22 1.22v2.4c0 0.67 0.54 1.22 1.22 1.22h1.75c0.67 0 1.22-0.55 1.22-1.22v-2.4c0-0.67-0.55-1.22-1.22-1.22h-1.75z"/>
<path id="ha" d="m530.15 538c-0.68 0-1.22 0.55-1.22 1.22v2.4c0 0.67 0.54 1.22 1.22 1.22h1.75c0.67 0 1.21-0.55 1.21-1.22v-2.4c0-0.67-0.54-1.22-1.21-1.22h-1.75z"/>
<path id="ib" d="m300.22 523.94c-0.67 0-1.22 0.55-1.22 1.22v2.4c0 0.68 0.55 1.22 1.22 1.22h1.75c0.67 0 1.22-0.54 1.22-1.22v-2.4c0-0.67-0.55-1.22-1.22-1.22h-1.75z"/>
<path id="cn" d="m300.22 530.65c-0.67 0-1.22 0.55-1.22 1.22v2.4c0 0.67 0.55 1.22 1.22 1.22h1.75c0.67 0 1.22-0.55 1.22-1.22v-2.4c0-0.67-0.55-1.22-1.22-1.22h-1.75z"/>
<path id="by" d="m300.22 509.98c-0.67 0-1.22 0.54-1.22 1.22v2.4c0 0.67 0.55 1.22 1.22 1.22h1.75c0.67 0 1.22-0.55 1.22-1.22v-2.4c0-0.68-0.55-1.22-1.22-1.22h-1.75z"/>
<path id="eu" d="m300.22 516.69c-0.67 0-1.22 0.54-1.22 1.21v2.41c0 0.67 0.55 1.21 1.22 1.21h1.75c0.67 0 1.22-0.54 1.22-1.21v-2.41c0-0.67-0.55-1.21-1.22-1.21h-1.75z"/>
<path id="ej" d="m307.78 523.94c-0.68 0-1.22 0.55-1.22 1.22v2.4c0 0.68 0.54 1.22 1.22 1.22h1.75c0.67 0 1.22-0.54 1.22-1.22v-2.4c0-0.67-0.55-1.22-1.22-1.22h-1.75z"/>
<path id="hu" d="m307.78 530.65c-0.68 0-1.22 0.55-1.22 1.22v2.4c0 0.67 0.54 1.22 1.22 1.22h1.75c0.67 0 1.22-0.55 1.22-1.22v-2.4c0-0.67-0.55-1.22-1.22-1.22h-1.75z"/>
<path id="cx" d="m316.03 523.94c-0.67 0-1.21 0.55-1.21 1.22v2.4c0 0.68 0.54 1.22 1.21 1.22h1.75c0.68 0 1.22-0.54 1.22-1.22v-2.4c0-0.67-0.54-1.22-1.22-1.22h-1.75z"/>
<path id="fl" d="m316.03 530.65c-0.67 0-1.21 0.55-1.21 1.22v2.4c0 0.67 0.54 1.22 1.21 1.22h1.75c0.68 0 1.22-0.55 1.22-1.22v-2.4c0-0.67-0.54-1.22-1.22-1.22h-1.75z"/>
<path id="kb" d="m307.78 509.98c-0.68 0-1.22 0.54-1.22 1.22v2.4c0 0.67 0.54 1.22 1.22 1.22h1.75c0.67 0 1.22-0.55 1.22-1.22v-2.4c0-0.68-0.55-1.22-1.22-1.22h-1.75z"/>
<path id="bl" d="m300.22 503.49c-0.67 0-1.22 0.54-1.22 1.22v2.4c0 0.67 0.55 1.22 1.22 1.22h1.75c0.67 0 1.22-0.55 1.22-1.22v-2.4c0-0.68-0.55-1.22-1.22-1.22h-1.75z"/>
<path id="jn" d="m307.78 503.49c-0.68 0-1.22 0.54-1.22 1.22v2.4c0 0.67 0.54 1.22 1.22 1.22h1.75c0.67 0 1.22-0.55 1.22-1.22v-2.4c0-0.68-0.55-1.22-1.22-1.22h-1.75z"/>
<path id="ir" d="m316.03 503.49c-0.67 0-1.21 0.54-1.21 1.22v2.4c0 0.67 0.54 1.22 1.21 1.22h1.75c0.68 0 1.22-0.55 1.22-1.22v-2.4c0-0.68-0.54-1.22-1.22-1.22h-1.75z"/>
<path id="iw" d="m536.32 597.6c0.67 0 1.21 0.55 1.21 1.22v2.41c0 0.67-0.54 1.21-1.21 1.21h-1.75c-0.68 0-1.22-0.54-1.22-1.21v-2.41c0-0.67 0.54-1.22 1.22-1.22h1.75z"/>
<path id="ae" d="m536.32 604.31c0.67 0 1.21 0.55 1.21 1.22v2.4c0 0.67-0.54 1.22-1.21 1.22h-1.75c-0.68 0-1.22-0.55-1.22-1.22v-2.4c0-0.67 0.54-1.22 1.22-1.22h1.75z"/>
<path id="bj" d="m536.32 583.64c0.67 0 1.21 0.55 1.21 1.22v2.4c0 0.67-0.54 1.22-1.21 1.22h-1.75c-0.68 0-1.22-0.55-1.22-1.22v-2.4c0-0.67 0.54-1.22 1.22-1.22h1.75z"/>
<path id="ei" d="m536.32 590.35c0.67 0 1.21 0.54 1.21 1.22v2.4c0 0.67-0.54 1.22-1.21 1.22h-1.75c-0.68 0-1.22-0.55-1.22-1.22v-2.4c0-0.68 0.54-1.22 1.22-1.22h1.75z"/>
<path id="lq" d="m528.76 597.6c0.67 0 1.22 0.55 1.22 1.22v2.41c0 0.67-0.55 1.21-1.22 1.21h-1.75c-0.68 0-1.22-0.54-1.22-1.21v-2.41c0-0.67 0.54-1.22 1.22-1.22h1.75z"/>
<path id="le" d="m528.76 604.31c0.67 0 1.22 0.55 1.22 1.22v2.4c0 0.67-0.55 1.22-1.22 1.22h-1.75c-0.68 0-1.22-0.55-1.22-1.22v-2.4c0-0.67 0.54-1.22 1.22-1.22h1.75z"/>
<path id="kg" d="m520.5 597.6c0.67 0 1.22 0.55 1.22 1.22v2.41c0 0.67-0.55 1.21-1.22 1.21h-1.75c-0.67 0-1.22-0.54-1.22-1.21v-2.41c0-0.67 0.55-1.22 1.22-1.22h1.75z"/>
<path id="jm" d="m520.5 583.86c0.67 0 1.22 0.55 1.22 1.22v2.4c0 0.68-0.55 1.22-1.22 1.22h-1.75c-0.67 0-1.22-0.54-1.22-1.22v-2.4c0-0.67 0.55-1.22 1.22-1.22h1.75z"/>
<path id="a" d="m528.76 583.64c0.67 0 1.22 0.55 1.22 1.22v2.4c0 0.67-0.55 1.22-1.22 1.22h-1.75c-0.68 0-1.22-0.55-1.22-1.22v-2.4c0-0.67 0.54-1.22 1.22-1.22h1.75z"/>
<path id="ho" d="m536.32 577.15c0.67 0 1.21 0.55 1.21 1.22v2.4c0 0.67-0.54 1.22-1.21 1.22h-1.75c-0.68 0-1.22-0.55-1.22-1.22v-2.4c0-0.67 0.54-1.22 1.22-1.22h1.75z"/>
<path id="hq" d="m528.76 577.15c0.67 0 1.22 0.55 1.22 1.22v2.4c0 0.67-0.55 1.22-1.22 1.22h-1.75c-0.68 0-1.22-0.55-1.22-1.22v-2.4c0-0.67 0.54-1.22 1.22-1.22h1.75z"/>
<path id="hy" d="m520.5 577.15c0.67 0 1.22 0.55 1.22 1.22v2.4c0 0.67-0.55 1.22-1.22 1.22h-1.75c-0.67 0-1.22-0.55-1.22-1.22v-2.4c0-0.67 0.55-1.22 1.22-1.22h1.75z"/>
<path id="e" d="m308.22 539.65c-0.67 0-1.22 0.55-1.22 1.22v2.4c0 0.67 0.55 1.22 1.22 1.22h1.75c0.67 0 1.22-0.55 1.22-1.22v-2.4c0-0.67-0.55-1.22-1.22-1.22h-1.75z"/>
<path id="en" d="m357.13 490.55c1.03 0 1.87 0.84 1.87 1.87v4.82c0 1.04-0.84 1.87-1.87 1.87h-1.26c-1.03 0-1.87-0.83-1.87-1.87v-4.82c0-1.03 0.84-1.87 1.87-1.87h1.26z"/>
<path id="v" d="m329.86 468.24c1.04 0 1.88 0.84 1.88 1.87v4.82c0 1.04-0.84 1.88-1.88 1.88h-1.25c-1.04 0-1.87-0.84-1.87-1.88v-4.82c0-1.03 0.83-1.87 1.87-1.87h1.25z"/>
<path id="jp" d="m316.22 540c-0.67 0-1.22 0.54-1.22 1.21v2.41c0 0.67 0.55 1.21 1.22 1.21h1.75c0.67 0 1.22-0.54 1.22-1.21v-2.41c0-0.67-0.55-1.21-1.22-1.21h-1.75z"/>
<path id="f" d="m323.03 514.82c-0.67 0-1.22 0.54-1.22 1.22v2.4c0 0.67 0.55 1.22 1.22 1.22h1.75c0.67 0 1.22-0.55 1.22-1.22v-2.4c0-0.68-0.55-1.22-1.22-1.22h-1.75z"/>
<path id="hj" d="m308.13 465.82c-0.68 0-1.22 0.55-1.22 1.22v2.4c0 0.67 0.54 1.22 1.22 1.22h1.75c0.67 0 1.21-0.55 1.21-1.22v-2.4c0-0.67-0.54-1.22-1.21-1.22h-1.75z"/>
<path id="o" d="m316.08 465.82c-0.67 0-1.22 0.55-1.22 1.22v2.4c0 0.67 0.55 1.22 1.22 1.22h1.75c0.67 0 1.22-0.55 1.22-1.22v-2.4c0-0.67-0.55-1.22-1.22-1.22h-1.75z"/>
<path id="ix" d="m323.03 523.94c-0.67 0-1.22 0.55-1.22 1.22v2.4c0 0.68 0.55 1.22 1.22 1.22h1.75c0.67 0 1.22-0.54 1.22-1.22v-2.4c0-0.67-0.55-1.22-1.22-1.22h-1.75z"/>
<path id="id" d="m320.3 468.24c0.41 0 0.75 0.33 0.75 0.75v7.07c0 0.41-0.34 0.75-0.75 0.75h-0.5c-0.42 0-0.75-0.34-0.75-0.75v-7.07c0-0.42 0.33-0.75 0.75-0.75h0.5z"/>
<path id="bf" d="m348.13 530c1.04 0 1.87 0.83 1.87 1.87v4.82c0 1.03-0.83 1.87-1.87 1.87h-1.25c-1.04 0-1.88-0.84-1.88-1.87v-4.82c0-1.04 0.84-1.87 1.88-1.87h1.25z"/>
<path id="ki" d="m339.75 517.8c1.03 0 1.87 0.83 1.87 1.87v4.82c0 1.03-0.84 1.87-1.87 1.87h-1.26c-1.03 0-1.87-0.84-1.87-1.87v-4.82c0-1.04 0.84-1.87 1.87-1.87h1.26z"/>
<path id="em" d="m339.75 490.55c1.03 0 1.87 0.84 1.87 1.87v4.82c0 1.04-0.84 1.87-1.87 1.87h-1.26c-1.03 0-1.87-0.83-1.87-1.87v-4.82c0-1.03 0.84-1.87 1.87-1.87h1.26z"/>
<path id="jo" d="m357.13 517.8c1.03 0 1.87 0.83 1.87 1.87v4.82c0 1.03-0.84 1.87-1.87 1.87h-1.26c-1.03 0-1.87-0.84-1.87-1.87v-4.82c0-1.04 0.84-1.87 1.87-1.87h1.26z"/>
<path id="di" d="m329.86 490.55c1.04 0 1.88 0.84 1.88 1.87v4.82c0 1.04-0.84 1.87-1.88 1.87h-1.25c-1.04 0-1.87-0.83-1.87-1.87v-4.82c0-1.03 0.83-1.87 1.87-1.87h1.25z"/>
<path id="q" d="m357.13 530c1.03 0 1.87 0.84 1.87 1.87v4.83c0 1.03-0.84 1.87-1.87 1.87h-1.26c-1.03 0-1.87-0.84-1.87-1.87v-4.83c0-1.03 0.84-1.87 1.87-1.87h1.26z"/>
<path id="do" d="m339.75 530c1.03 0 1.87 0.83 1.87 1.87v4.82c0 1.03-0.84 1.87-1.87 1.87h-1.26c-1.03 0-1.87-0.84-1.87-1.87v-4.82c0-1.04 0.84-1.87 1.87-1.87h1.26z"/>
<path id="fx" d="m357.13 543c1.03 0 1.87 0.84 1.87 1.87v4.83c0 1.03-0.84 1.87-1.87 1.87h-1.26c-1.03 0-1.87-0.84-1.87-1.87v-4.83c0-1.03 0.84-1.87 1.87-1.87h1.26z"/>
<path id="lw" d="m346.49 554.17c1.04 0 1.87 0.84 1.87 1.87v4.83c0 1.03-0.83 1.87-1.87 1.87h-1.25c-1.04 0-1.88-0.84-1.88-1.87v-4.83c0-1.03 0.84-1.87 1.88-1.87h1.25z"/>
<path id="bz" d="m348.1 517.8c1.03 0 1.87 0.83 1.87 1.87v4.82c0 1.03-0.84 1.87-1.87 1.87h-1.26c-1.03 0-1.87-0.84-1.87-1.87v-4.82c0-1.04 0.84-1.87 1.87-1.87h1.26z"/>
<path id="cg" d="m337.25 567.13c1.03 0 1.87 0.84 1.87 1.88v4.82c0 1.03-0.84 1.87-1.87 1.87h-1.26c-1.03 0-1.87-0.84-1.87-1.87v-4.82c0-1.04 0.84-1.88 1.87-1.88h1.26z"/>
<path id="bp" d="m320.3 490.55c0.41 0 0.75 0.33 0.75 0.75v4.5c0 0.41-0.34 0.75-0.75 0.75h-0.5c-0.42 0-0.75-0.34-0.75-0.75v-4.5c0-0.42 0.33-0.75 0.75-0.75h0.5z"/>
<path id="bb" d="m330.79 529c0.41 0 0.74 0.34 0.74 0.75v7.07c0 0.41-0.33 0.75-0.74 0.75h-0.51c-0.41 0-0.75-0.34-0.75-0.75v-7.07c0-0.41 0.34-0.75 0.75-0.75h0.51z"/>
<path id="fh" d="m331.25 504c0.41 0 0.75 0.33 0.75 0.74v7.07c0 0.42-0.34 0.75-0.75 0.75h-0.51c-0.41 0-0.74-0.33-0.74-0.75v-7.07c0-0.41 0.33-0.74 0.74-0.74h0.51z"/>
<path id="fy" d="m464.63 419.13c0.41 0 0.75 0.33 0.75 0.75v7.07c0 0.41-0.34 0.74-0.75 0.74h-0.5c-0.42 0-0.75-0.33-0.75-0.74v-7.07c0-0.42 0.33-0.75 0.75-0.75h0.5z"/>
<path id="lx" d="m464.26 419.13c0.62 0 1.12 0.5 1.12 1.12v6.32c0 0.62-0.5 1.12-1.12 1.12h-0.76c-0.62 0-1.12-0.5-1.12-1.12v-6.32c0-0.62 0.5-1.12 1.12-1.12h0.76z"/>
<path id="ig" d="m356.13 567c1.03 0 1.87 0.83 1.87 1.87v4.82c0 1.03-0.84 1.87-1.87 1.87h-1.26c-1.03 0-1.87-0.84-1.87-1.87v-4.82c0-1.04 0.84-1.87 1.87-1.87h1.26z"/>
<path id="m" d="m339.75 504.81c1.03 0 1.87 0.84 1.87 1.87v4.82c0 1.04-0.84 1.88-1.87 1.88h-1.26c-1.03 0-1.87-0.84-1.87-1.88v-4.82c0-1.03 0.84-1.87 1.87-1.87h1.26z"/>
<path id="lt" d="m338.49 543.94c1.03 0 1.87 0.84 1.87 1.87v4.83c0 1.03-0.84 1.87-1.87 1.87h-1.26c-1.03 0-1.87-0.84-1.87-1.87v-4.83c0-1.03 0.84-1.87 1.87-1.87h1.26z"/>
<path id="eg" d="m329.36 399.04c1.04 0 1.88 0.84 1.88 1.87v4.82c0 1.04-0.84 1.88-1.88 1.88h-1.25c-1.04 0-1.87-0.84-1.87-1.88v-4.82c0-1.03 0.83-1.87 1.87-1.87h1.25z"/>
<path id="ky" d="m37.71 604.87c0.38 0 0.68 0.31 0.68 0.69v4.54c0 0.38-0.3 0.69-0.68 0.69h-0.47c-0.37 0-0.68-0.31-0.68-0.69v-4.54c0-0.38 0.31-0.69 0.68-0.69h0.47z"/>
<path id="il" d="m37.71 613.07c0.38 0 0.68 0.31 0.68 0.69v4.54c0 0.38-0.3 0.69-0.68 0.69h-0.47c-0.37 0-0.68-0.31-0.68-0.69v-4.54c0-0.38 0.31-0.69 0.68-0.69h0.47z"/>
<path id="ao" d="m34.09 604.87c0.38 0 0.68 0.31 0.68 0.69v4.54c0 0.38-0.3 0.69-0.68 0.69h-0.47c-0.37 0-0.68-0.31-0.68-0.69v-4.54c0-0.38 0.31-0.69 0.68-0.69h0.47z"/>
<path id="cu" d="m34.09 613.07c0.38 0 0.68 0.31 0.68 0.69v4.54c0 0.38-0.3 0.69-0.68 0.69h-0.47c-0.37 0-0.68-0.31-0.68-0.69v-4.54c0-0.38 0.31-0.69 0.68-0.69h0.47z"/>
<path id="hs" d="m37.71 596c0.38 0 0.68 0.31 0.68 0.69v4.54c0 0.38-0.3 0.69-0.68 0.69h-0.47c-0.37 0-0.68-0.31-0.68-0.69v-4.54c0-0.38 0.31-0.69 0.68-0.69h0.47z"/>
<path id="ew" d="m34.09 596c0.38 0 0.68 0.31 0.68 0.69v4.54c0 0.38-0.3 0.69-0.68 0.69h-0.47c-0.37 0-0.68-0.31-0.68-0.69v-4.54c0-0.38 0.31-0.69 0.68-0.69h0.47z"/>
<path id="bd" d="m30.77 604.87c0.38 0 0.69 0.31 0.69 0.69v4.54c0 0.38-0.31 0.69-0.69 0.69h-0.46c-0.38 0-0.69-0.31-0.69-0.69v-4.54c0-0.38 0.31-0.69 0.69-0.69h0.46z"/>
<path id="ds" d="m30.77 613.07c0.38 0 0.69 0.31 0.69 0.69v4.54c0 0.38-0.31 0.69-0.69 0.69h-0.46c-0.38 0-0.69-0.31-0.69-0.69v-4.54c0-0.38 0.31-0.69 0.69-0.69h0.46z"/>
<path id="bs" d="m27.15 604.87c0.38 0 0.69 0.31 0.69 0.69v4.54c0 0.38-0.31 0.69-0.69 0.69h-0.46c-0.38 0-0.69-0.31-0.69-0.69v-4.54c0-0.38 0.31-0.69 0.69-0.69h0.46z"/>
<path id="db" d="m27.15 613.07c0.38 0 0.69 0.31 0.69 0.69v4.54c0 0.38-0.31 0.69-0.69 0.69h-0.46c-0.38 0-0.69-0.31-0.69-0.69v-4.54c0-0.38 0.31-0.69 0.69-0.69h0.46z"/>
<path id="gq" d="m30.77 596c0.38 0 0.69 0.31 0.69 0.69v4.54c0 0.38-0.31 0.69-0.69 0.69h-0.46c-0.38 0-0.69-0.31-0.69-0.69v-4.54c0-0.38 0.31-0.69 0.69-0.69h0.46z"/>
<path id="cw" d="m27.25 596c0.38 0 0.68 0.31 0.68 0.69v4.54c0 0.38-0.3 0.69-0.68 0.69h-0.46c-0.38 0-0.69-0.31-0.69-0.69v-4.54c0-0.38 0.31-0.69 0.69-0.69h0.46z"/>
<path id="fc" d="m51.56 604.87c0.38 0 0.68 0.31 0.68 0.69v4.54c0 0.38-0.3 0.69-0.68 0.69h-0.46c-0.38 0-0.69-0.31-0.69-0.69v-4.54c0-0.38 0.31-0.69 0.69-0.69h0.46z"/>
<path id="bh" d="m51.56 613.07c0.38 0 0.68 0.31 0.68 0.69v4.54c0 0.38-0.3 0.69-0.68 0.69h-0.46c-0.38 0-0.69-0.31-0.69-0.69v-4.54c0-0.38 0.31-0.69 0.69-0.69h0.46z"/>
<path id="dk" d="m47.94 604.87c0.38 0 0.68 0.31 0.68 0.69v4.54c0 0.38-0.3 0.69-0.68 0.69h-0.46c-0.38 0-0.69-0.31-0.69-0.69v-4.54c0-0.38 0.31-0.69 0.69-0.69h0.46z"/>
<path id="at" d="m47.94 613.07c0.38 0 0.68 0.31 0.68 0.69v4.54c0 0.38-0.3 0.69-0.68 0.69h-0.46c-0.38 0-0.69-0.31-0.69-0.69v-4.54c0-0.38 0.31-0.69 0.69-0.69h0.46z"/>
<path id="fd" d="m51.56 596c0.38 0 0.68 0.31 0.68 0.69v4.54c0 0.38-0.3 0.69-0.68 0.69h-0.46c-0.38 0-0.69-0.31-0.69-0.69v-4.54c0-0.38 0.31-0.69 0.69-0.69h0.46z"/>
<path id="bx" d="m47.94 596c0.38 0 0.68 0.31 0.68 0.69v4.54c0 0.38-0.3 0.69-0.68 0.69h-0.46c-0.38 0-0.69-0.31-0.69-0.69v-4.54c0-0.38 0.31-0.69 0.69-0.69h0.46z"/>
<path id="bv" d="m44.62 604.87c0.38 0 0.69 0.31 0.69 0.69v4.54c0 0.38-0.31 0.69-0.69 0.69h-0.46c-0.38 0-0.69-0.31-0.69-0.69v-4.54c0-0.38 0.31-0.69 0.69-0.69h0.46z"/>
<path id="gn" d="m44.62 613.07c0.38 0 0.69 0.31 0.69 0.69v4.54c0 0.38-0.31 0.69-0.69 0.69h-0.46c-0.38 0-0.69-0.31-0.69-0.69v-4.54c0-0.38 0.31-0.69 0.69-0.69h0.46z"/>
<path id="ii" d="m41 604.87c0.38 0 0.69 0.31 0.69 0.69v4.54c0 0.38-0.31 0.69-0.69 0.69h-0.46c-0.38 0-0.69-0.31-0.69-0.69v-4.54c0-0.38 0.31-0.69 0.69-0.69h0.46z"/>
<path id="dt" d="m41 613.07c0.38 0 0.69 0.31 0.69 0.69v4.54c0 0.38-0.31 0.69-0.69 0.69h-0.46c-0.38 0-0.69-0.31-0.69-0.69v-4.54c0-0.38 0.31-0.69 0.69-0.69h0.46z"/>
<path id="ko" d="m44.62 596c0.38 0 0.69 0.31 0.69 0.69v4.54c0 0.38-0.31 0.69-0.69 0.69h-0.46c-0.38 0-0.69-0.31-0.69-0.69v-4.54c0-0.38 0.31-0.69 0.69-0.69h0.46z"/>
<path id="dr" d="m41.1 596c0.38 0 0.69 0.31 0.69 0.69v4.54c0 0.38-0.31 0.69-0.69 0.69h-0.46c-0.38 0-0.69-0.31-0.69-0.69v-4.54c0-0.38 0.31-0.69 0.69-0.69h0.46z"/>
<path id="iv" d="m601.92 590.11c0.39 0 0.7 0.32 0.7 0.7v4.63c0 0.39-0.31 0.7-0.7 0.7h-0.47c-0.39 0-0.7-0.31-0.7-0.7v-4.63c0-0.38 0.31-0.7 0.7-0.7h0.47z"/>
<path id="ci" d="m601.92 598.47c0.39 0 0.7 0.32 0.7 0.7v4.63c0 0.39-0.31 0.7-0.7 0.7h-0.47c-0.39 0-0.7-0.31-0.7-0.7v-4.63c0-0.38 0.31-0.7 0.7-0.7h0.47z"/>
<path id="fm" d="m598.23 590.11c0.39 0 0.7 0.32 0.7 0.7v4.63c0 0.39-0.31 0.7-0.7 0.7h-0.47c-0.38 0-0.7-0.31-0.7-0.7v-4.63c0-0.38 0.32-0.7 0.7-0.7h0.47z"/>
<path id="ca" d="m598.23 598.47c0.39 0 0.7 0.32 0.7 0.7v4.63c0 0.39-0.31 0.7-0.7 0.7h-0.47c-0.38 0-0.7-0.31-0.7-0.7v-4.63c0-0.38 0.32-0.7 0.7-0.7h0.47z"/>
<path id="jq" d="m601.92 581.07c0.39 0 0.7 0.31 0.7 0.7v4.63c0 0.39-0.31 0.7-0.7 0.7h-0.47c-0.39 0-0.7-0.31-0.7-0.7v-4.63c0-0.39 0.31-0.7 0.7-0.7h0.47z"/>
<path id="gl" d="m598.23 581.07c0.39 0 0.7 0.31 0.7 0.7v4.63c0 0.39-0.31 0.7-0.7 0.7h-0.47c-0.38 0-0.7-0.31-0.7-0.7v-4.63c0-0.39 0.32-0.7 0.7-0.7h0.47z"/>
<path id="gv" d="m594.86 590.11c0.38 0 0.7 0.32 0.7 0.7v4.63c0 0.39-0.32 0.7-0.7 0.7h-0.47c-0.39 0-0.7-0.31-0.7-0.7v-4.63c0-0.38 0.31-0.7 0.7-0.7h0.47z"/>
<path id="bo" d="m594.86 598.47c0.38 0 0.7 0.32 0.7 0.7v4.63c0 0.39-0.32 0.7-0.7 0.7h-0.47c-0.39 0-0.7-0.31-0.7-0.7v-4.63c0-0.38 0.31-0.7 0.7-0.7h0.47z"/>
<path id="w" d="m591.17 590.11c0.39 0 0.7 0.32 0.7 0.7v4.63c0 0.39-0.31 0.7-0.7 0.7h-0.47c-0.39 0-0.7-0.31-0.7-0.7v-4.63c0-0.38 0.31-0.7 0.7-0.7h0.47z"/>
<path id="ip" d="m591.17 598.47c0.39 0 0.7 0.32 0.7 0.7v4.63c0 0.39-0.31 0.7-0.7 0.7h-0.47c-0.39 0-0.7-0.31-0.7-0.7v-4.63c0-0.38 0.31-0.7 0.7-0.7h0.47z"/>
<path id="jl" d="m594.86 581.07c0.38 0 0.7 0.31 0.7 0.7v4.63c0 0.39-0.32 0.7-0.7 0.7h-0.47c-0.39 0-0.7-0.31-0.7-0.7v-4.63c0-0.39 0.31-0.7 0.7-0.7h0.47z"/>
<path id="aj" d="m591.27 581.07c0.38 0 0.7 0.31 0.7 0.7v4.63c0 0.39-0.32 0.7-0.7 0.7h-0.47c-0.39 0-0.7-0.31-0.7-0.7v-4.63c0-0.39 0.31-0.7 0.7-0.7h0.47z"/>
<path id="bu" d="m605.3 590.11c0.39 0 0.7 0.32 0.7 0.7v4.63c0 0.39-0.31 0.7-0.7 0.7h-0.47c-0.39 0-0.7-0.31-0.7-0.7v-4.63c0-0.38 0.31-0.7 0.7-0.7h0.47z"/>
<path id="cc" d="m605.3 598.47c0.39 0 0.7 0.32 0.7 0.7v4.63c0 0.39-0.31 0.7-0.7 0.7h-0.47c-0.39 0-0.7-0.31-0.7-0.7v-4.63c0-0.38 0.31-0.7 0.7-0.7h0.47z"/>
<path id="ff" d="m605.3 581.07c0.39 0 0.7 0.31 0.7 0.7v4.63c0 0.39-0.31 0.7-0.7 0.7h-0.47c-0.39 0-0.7-0.31-0.7-0.7v-4.63c0-0.39 0.31-0.7 0.7-0.7h0.47z"/>
<path id="cj" d="m497.7 520.48c0.78 0 1.41 0.63 1.41 1.41v9.31c0 0.78-0.63 1.41-1.41 1.41h-0.95c-0.78 0-1.41-0.63-1.41-1.41v-9.31c0-0.78 0.63-1.41 1.41-1.41h0.95z"/>
<path id="ct" d="m497.7 537.3c0.78 0 1.41 0.63 1.41 1.41v9.32c0 0.78-0.63 1.41-1.41 1.41h-0.95c-0.78 0-1.41-0.63-1.41-1.41v-9.32c0-0.78 0.63-1.41 1.41-1.41h0.95z"/>
<path id="ag" d="m483.47 553.76c0.78 0 1.41 0.64 1.41 1.42v9.31c0 0.78-0.63 1.41-1.41 1.41h-0.95c-0.78 0-1.41-0.63-1.41-1.41v-9.31c0-0.78 0.63-1.42 1.41-1.42h0.95z"/>
<path id="gp" d="m490.27 537.3c0.78 0 1.41 0.63 1.41 1.41v9.32c0 0.78-0.63 1.41-1.41 1.41h-0.95c-0.78 0-1.41-0.63-1.41-1.41v-9.32c0-0.78 0.63-1.41 1.41-1.41h0.95z"/>
<path id="fk" d="m497.7 485.44c0.78 0 1.41 0.63 1.41 1.41v9.32c0 0.78-0.63 1.41-1.41 1.41h-0.95c-0.78 0-1.41-0.63-1.41-1.41v-9.32c0-0.78 0.63-1.41 1.41-1.41h0.95z"/>
<path id="lz" d="m497.7 502.27c0.78 0 1.41 0.63 1.41 1.41v9.32c0 0.77-0.63 1.41-1.41 1.41h-0.95c-0.78 0-1.41-0.64-1.41-1.41v-9.32c0-0.78 0.63-1.41 1.41-1.41h0.95z"/>
<path id="ef" d="m490.27 502.27c0.78 0 1.41 0.63 1.41 1.41v9.32c0 0.77-0.63 1.41-1.41 1.41h-0.95c-0.78 0-1.41-0.64-1.41-1.41v-9.32c0-0.78 0.63-1.41 1.41-1.41h0.95z"/>
<path id="gx" d="m483.47 520.48c0.78 0 1.41 0.63 1.41 1.41v9.31c0 0.78-0.63 1.41-1.41 1.41h-0.95c-0.78 0-1.41-0.63-1.41-1.41v-9.31c0-0.78 0.63-1.41 1.41-1.41h0.95z"/>
<path id="dm" d="m483.47 537.3c0.78 0 1.41 0.63 1.41 1.41v9.32c0 0.78-0.63 1.41-1.41 1.41h-0.95c-0.78 0-1.41-0.63-1.41-1.41v-9.32c0-0.78 0.63-1.41 1.41-1.41h0.95z"/>
<path id="ac" d="m497.7 553.76c0.78 0 1.41 0.64 1.41 1.42v9.31c0 0.78-0.63 1.41-1.41 1.41h-0.95c-0.78 0-1.41-0.63-1.41-1.41v-9.31c0-0.78 0.63-1.42 1.41-1.42h0.95z"/>
<path id="j" d="m483.47 485.44c0.78 0 1.41 0.63 1.41 1.41v9.32c0 0.78-0.63 1.41-1.41 1.41h-0.95c-0.78 0-1.41-0.63-1.41-1.41v-9.32c0-0.78 0.63-1.41 1.41-1.41h0.95z"/>
<path id="dx" d="m483.47 502.27c0.78 0 1.41 0.63 1.41 1.41v9.32c0 0.77-0.63 1.41-1.41 1.41h-0.95c-0.78 0-1.41-0.64-1.41-1.41v-9.32c0-0.78 0.63-1.41 1.41-1.41h0.95z"/>
<path id="df" d="m497.7 469.16c0.78 0 1.41 0.63 1.41 1.41v9.32c0 0.78-0.63 1.41-1.41 1.41h-0.95c-0.78 0-1.41-0.63-1.41-1.41v-9.32c0-0.78 0.63-1.41 1.41-1.41h0.95z"/>
<path id="r" d="m490.69 457.44c0.78 0 1.42 0.63 1.42 1.41v9.32c0 0.78-0.64 1.41-1.42 1.41h-0.94c-0.78 0-1.41-0.63-1.41-1.41v-9.32c0-0.78 0.63-1.41 1.41-1.41h0.94z"/>
<path id="c" d="m483.47 469.16c0.78 0 1.41 0.63 1.41 1.41v9.32c0 0.78-0.63 1.41-1.41 1.41h-0.95c-0.78 0-1.41-0.63-1.41-1.41v-9.32c0-0.78 0.63-1.41 1.41-1.41h0.95z"/>
<path id="jj" d="m490.69 567.43c0.78 0 1.42 0.63 1.42 1.41v9.32c0 0.78-0.64 1.41-1.42 1.41h-0.94c-0.78 0-1.41-0.63-1.41-1.41v-9.32c0-0.78 0.63-1.41 1.41-1.41h0.94z"/>
<path id="ch" d="m202.61 553.12c0.56 0 1.01 0.45 1.01 1.01v1.99c0 0.55-0.45 1-1.01 1h-5.99c-0.55 0-1-0.45-1-1v-1.99c0-0.56 0.45-1.01 1-1.01h5.99z"/>
<path id="kc" d="m135.61 588.9c0.56 0 1.01 0.45 1.01 1.01v1.98c0 0.56-0.45 1.01-1.01 1.01h-5.99c-0.55 0-1-0.45-1-1.01v-1.98c0-0.56 0.45-1.01 1-1.01h5.99z"/>
<path id="hh" d="m208.27 586.28c0.55 0 1 0.45 1 1.01v1.99c0 0.55-0.45 1-1 1h-5.99c-0.56 0-1.01-0.45-1.01-1v-1.99c0-0.56 0.45-1.01 1.01-1.01h5.99z"/>
<path id="hr" d="m221.51 571.7c0.56 0 1.01 0.45 1.01 1.01v1.98c0 0.56-0.45 1.01-1.01 1.01h-5.98c-0.56 0-1.01-0.45-1.01-1.01v-1.98c0-0.56 0.45-1.01 1.01-1.01h5.98z"/>
<path id="l" d="m221.52 586c0.56 0 1.01 0.45 1.01 1.01v1.98c0 0.56-0.45 1.01-1.01 1.01h-5.99c-0.55 0-1-0.45-1-1.01v-1.98c0-0.56 0.45-1.01 1-1.01h5.99z"/>
<path id="he" d="m174.05 588.9c0.56 0 1.01 0.45 1.01 1.01v1.98c0 0.56-0.45 1.01-1.01 1.01h-5.98c-0.56 0-1.01-0.45-1.01-1.01v-1.98c0-0.56 0.45-1.01 1.01-1.01h5.98z"/>
<path id="jw" d="m155.13 588.9c0.56 0 1.01 0.45 1.01 1.01v1.98c0 0.56-0.45 1.01-1.01 1.01h-5.98c-0.56 0-1.01-0.45-1.01-1.01v-1.98c0-0.56 0.45-1.01 1.01-1.01h5.98z"/>
<path id="lp" d="m208.81 411c0.56 0 1.01-0.45 1.01-1v-1.99c0-0.56-0.45-1.01-1.01-1.01h-5.98c-0.56 0-1.01 0.45-1.01 1.01v1.99c0 0.55 0.45 1 1.01 1h5.98z"/>
<path id="ev" d="m151.99 411c0.56 0 1.01-0.45 1.01-1v-1.99c0-0.56-0.45-1.01-1.01-1.01h-4.99c-0.55 0-1 0.45-1 1.01v1.99c0 0.55 0.45 1 1 1h4.99z"/>
<path id="ht" d="m173.51 550.23c0.56 0 1.01-0.45 1.01-1.01v-1.99c0-0.55-0.45-1-1.01-1h-5.98c-0.56 0-1.01 0.45-1.01 1v1.99c0 0.56 0.45 1.01 1.01 1.01h5.98z"/>
<path id="cy" d="m191.43 418.46c0.56 0 1.01-0.45 1.01-1.01v-1.98c0-0.56-0.45-1.01-1.01-1.01h-5.98c-0.56 0-1.01 0.45-1.01 1.01v1.98c0 0.56 0.45 1.01 1.01 1.01h5.98z"/>
<path id="ck" d="m138.24 517.28c0.56 0 1.01-0.45 1.01-1.01v-1.98c0-0.56-0.45-1.01-1.01-1.01h-5.98c-0.56 0-1.01 0.45-1.01 1.01v1.98c0 0.56 0.45 1.01 1.01 1.01h5.98z"/>
<path id="gf" d="m128.07 484.96c0.55 0 1-0.45 1-1.01v-1.98c0-0.56-0.45-1.01-1-1.01h-5.99c-0.56 0-1.01 0.45-1.01 1.01v1.98c0 0.56 0.45 1.01 1.01 1.01h5.99z"/>
<path id="dw" d="m172.51 411c0.56 0 1.01-0.45 1.01-1v-1.99c0-0.56-0.45-1.01-1.01-1.01h-5.98c-0.56 0-1.01 0.45-1.01 1.01v1.99c0 0.55 0.45 1 1.01 1h5.98z"/>
<path id="jk" d="m208.81 429.46c0.56 0 1.01 0.45 1.01 1.01v1.98c0 0.56-0.45 1.01-1.01 1.01h-5.98c-0.56 0-1.01-0.45-1.01-1.01v-1.98c0-0.56 0.45-1.01 1.01-1.01h5.98z"/>
<path id="cb" d="m152.99 429.46c0.56 0 1.01 0.45 1.01 1.01v1.98c0 0.56-0.45 1.01-1.01 1.01h-5.99c-0.55 0-1-0.45-1-1.01v-1.98c0-0.56 0.45-1.01 1-1.01h5.99z"/>
<path id="fs" d="m138.24 466.67c0.56 0 1.01 0.45 1.01 1v1.99c0 0.56-0.45 1.01-1.01 1.01h-5.98c-0.56 0-1.01-0.45-1.01-1.01v-1.99c0-0.55 0.45-1 1.01-1h5.98z"/>
<path id="bq" d="m172.51 478.05c0.56 0 1.01 0.45 1.01 1.01v1.98c0 0.56-0.45 1.01-1.01 1.01h-5.98c-0.56 0-1.01-0.45-1.01-1.01v-1.98c0-0.56 0.45-1.01 1.01-1.01h5.98z"/>
<path id="an" d="m136.55 422c0.55 0 1 0.45 1 1.01v1.99c0 0.55-0.45 1-1 1h-5.99c-0.55 0-1.01-0.45-1.01-1v-1.99c0-0.56 0.46-1.01 1.01-1.01h5.99z"/>
<path id="cl" d="m191.43 429.46c0.56 0 1.01 0.45 1.01 1.01v1.98c0 0.56-0.45 1.01-1.01 1.01h-5.98c-0.56 0-1.01-0.45-1.01-1.01v-1.98c0-0.56 0.45-1.01 1.01-1.01h5.98z"/>
<path id="ar" d="m172.51 429.46c0.56 0 1.01 0.45 1.01 1.01v1.98c0 0.56-0.45 1.01-1.01 1.01h-5.98c-0.56 0-1.01-0.45-1.01-1.01v-1.98c0-0.56 0.45-1.01 1.01-1.01h5.98z"/>
<path id="hd" d="m208.81 444.46c0.56 0 1.01 0.45 1.01 1.01v1.98c0 0.56-0.45 1.01-1.01 1.01h-5.98c-0.56 0-1.01-0.45-1.01-1.01v-1.98c0-0.56 0.45-1.01 1.01-1.01h5.98z"/>
<path id="bk" d="m148.9 476.89c0.56 0 1.01 0.45 1.01 1.01v1.98c0 0.56-0.45 1.01-1.01 1.01h-5.98c-0.56 0-1.01-0.45-1.01-1.01v-1.98c0-0.56 0.45-1.01 1.01-1.01h5.98z"/>
<path id="ai" d="m155.51 503.27c0.56 0 1.01 0.45 1.01 1.01v1.98c0 0.56-0.45 1.01-1.01 1.01h-5.98c-0.56 0-1.01-0.45-1.01-1.01v-1.98c0-0.56 0.45-1.01 1.01-1.01h5.98z"/>
<path id="cm" d="m404.01 410.56c0.81 0 1.46 0.66 1.46 1.47v2.89c0 0.81-0.65 1.46-1.46 1.46h-7.25c-0.81 0-1.46-0.65-1.46-1.46v-2.89c0-0.81 0.65-1.47 1.46-1.47h7.25z"/>
<path id="ad" d="m135.99 437c0.56 0 1.01 0.45 1.01 1.01v1.99c0 0.55-0.45 1-1.01 1h-5.99c-0.55 0-1-0.45-1-1v-1.99c0-0.56 0.45-1.01 1-1.01h5.99z"/>
<path id="du" d="m138.73 497.33c0.55 0 1 0.45 1 1.01v1.99c0 0.55-0.45 1-1 1h-5.99c-0.56 0-1.01-0.45-1.01-1v-1.99c0-0.56 0.45-1.01 1.01-1.01h5.99z"/>
<path id="jt" d="m209.79 501.9c0.56 0 1.01 0.45 1.01 1.01v1.98c0 0.56-0.45 1.01-1.01 1.01h-5.99c-0.55 0-1-0.45-1-1.01v-1.98c0-0.56 0.45-1.01 1-1.01h5.99z"/>
<path id="hg" d="m197.52 475.07c0.56 0 1.01-0.46 1.01-1.01v-1.99c0-0.55-0.45-1-1.01-1h-5.99c-0.55 0-1 0.45-1 1v1.99c0 0.55 0.45 1.01 1 1.01h5.99z"/>
<path id="kd" d="m153.99 457c0.56 0 1.01-0.45 1.01-1v-1.99c0-0.56-0.45-1.01-1.01-1.01h-5.99c-0.55 0-1 0.45-1 1.01v1.99c0 0.55 0.45 1 1 1h5.99z"/>
<path id="dl" d="m209.79 464.46c0.56 0 1.01-0.45 1.01-1.01v-1.98c0-0.56-0.45-1.01-1.01-1.01h-5.99c-0.55 0-1 0.45-1 1.01v1.98c0 0.56 0.45 1.01 1 1.01h5.99z"/>
<path id="jb" d="m209.79 541.18c0.56 0 1.01-0.45 1.01-1.01v-1.99c0-0.55-0.45-1-1.01-1h-5.99c-0.55 0-1 0.45-1 1v1.99c0 0.56 0.45 1.01 1 1.01h5.99z"/>
<path id="dg" d="m192.43 495.51c0.56 0 1.01-0.45 1.01-1.01v-1.98c0-0.56-0.45-1.01-1.01-1.01h-5.98c-0.56 0-1.01 0.45-1.01 1.01v1.98c0 0.56 0.45 1.01 1.01 1.01h5.98z"/>
<path id="jr" d="m192.43 457c0.56 0 1.01-0.45 1.01-1v-1.99c0-0.56-0.45-1.01-1.01-1.01h-5.98c-0.56 0-1.01 0.45-1.01 1.01v1.99c0 0.55 0.45 1 1.01 1h5.98z"/>
<path id="jd" d="m173.51 457c0.56 0 1.01-0.45 1.01-1v-1.99c0-0.56-0.45-1.01-1.01-1.01h-5.98c-0.56 0-1.01 0.45-1.01 1.01v1.99c0 0.55 0.45 1 1.01 1h5.98z"/>
<path id="ks" d="m135.99 567.36c0.56 0 1.01 0.45 1.01 1.01v1.99c0 0.55-0.45 1-1.01 1h-5.99c-0.55 0-1-0.45-1-1v-1.99c0-0.56 0.45-1.01 1-1.01h5.99z"/>
<path id="kh" d="m135.61 544.89c0.56 0 1.01 0.45 1.01 1.01v1.98c0 0.56-0.45 1.01-1.01 1.01h-5.99c-0.55 0-1-0.45-1-1.01v-1.98c0-0.56 0.45-1.01 1-1.01h5.99z"/>
<path id="ma" d="m209.79 568c0.56 0 1.01 0.45 1.01 1.01v1.98c0 0.56-0.45 1.01-1.01 1.01h-5.99c-0.55 0-1-0.45-1-1.01v-1.98c0-0.56 0.45-1.01 1-1.01h5.99z"/>
<path id="bi" d="m128.07 522.96c0.55 0 1 0.45 1 1.01v1.98c0 0.56-0.45 1.01-1 1.01h-5.99c-0.56 0-1.01-0.45-1.01-1.01v-1.98c0-0.56 0.45-1.01 1.01-1.01h5.99z"/>
<path id="el" d="m153.99 525.28c0.56 0 1.01 0.45 1.01 1v1.99c0 0.56-0.45 1.01-1.01 1.01h-5.99c-0.55 0-1-0.45-1-1.01v-1.99c0-0.55 0.45-1 1-1h5.99z"/>
<path id="gs" d="m173.51 560.53c0.56 0 1.01 0.45 1.01 1.01v1.99c0 0.55-0.45 1-1.01 1h-5.98c-0.56 0-1.01-0.45-1.01-1v-1.99c0-0.56 0.45-1.01 1.01-1.01h5.98z"/>
<path id="g" d="m208.81 518.12c0.56 0 1.01 0.45 1.01 1.01v1.98c0 0.56-0.45 1.01-1.01 1.01h-5.98c-0.56 0-1.01-0.45-1.01-1.01v-1.98c0-0.56 0.45-1.01 1.01-1.01h5.98z"/>
<path id="al" d="m209.79 493.01c0.56 0 1.01-0.45 1.01-1.01v-1.99c0-0.55-0.45-1-1.01-1h-5.99c-0.55 0-1 0.45-1 1v1.99c0 0.56 0.45 1.01 1 1.01h5.99z"/>
<path id="ic" d="m174.05 507.27c0.56 0 1.01-0.45 1.01-1.01v-1.98c0-0.56-0.45-1.01-1.01-1.01h-5.98c-0.56 0-1.01 0.45-1.01 1.01v1.98c0 0.56 0.45 1.01 1.01 1.01h5.98z"/>
<path id="lf" d="m196.52 530.92c0.56 0 1.01-0.45 1.01-1.01v-1.99c0-0.55-0.45-1-1.01-1h-5.99c-0.55 0-1 0.45-1 1v1.99c0 0.56 0.45 1.01 1 1.01h5.99z"/>
<path id="gw" d="m155.51 575.78c0.56 0 1.01-0.45 1.01-1v-1.99c0-0.56-0.45-1.01-1.01-1.01h-5.98c-0.56 0-1.01 0.45-1.01 1.01v1.99c0 0.55 0.45 1 1.01 1h5.98z"/>
<path id="y" d="m128.07 560.04c0.55 0 1-0.46 1-1.01v-1.99c0-0.55-0.45-1-1-1h-5.99c-0.56 0-1.01 0.45-1.01 1v1.99c0 0.55 0.45 1.01 1.01 1.01h5.99z"/>
<path id="fv" d="m196.01 512.8c0.56 0 1.01-0.45 1.01-1.01v-1.98c0-0.56-0.45-1.01-1.01-1.01h-5.98c-0.56 0-1.01 0.45-1.01 1.01v1.98c0 0.56 0.45 1.01 1.01 1.01h5.98z"/>
<path id="kf" d="m128.07 457c0.55 0 1-0.45 1-1v-1.99c0-0.56-0.45-1.01-1-1.01h-5.99c-0.56 0-1.01 0.45-1.01 1.01v1.99c0 0.55 0.45 1 1.01 1h5.99z"/>
<path id="gc" d="m414.46 439.16c0.82 0 1.49 0.67 1.49 1.49v2.92c0 0.82-0.67 1.48-1.49 1.48h-3.08c-0.82 0-1.48-0.66-1.48-1.48v-2.92c0-0.82 0.66-1.49 1.48-1.49h3.08z"/>
<path id="if" d="m383.57 446.88c0.81 0 1.48 0.66 1.48 1.48v2.93c0 0.82-0.67 1.48-1.48 1.48h-3.09c-0.82 0-1.48-0.66-1.48-1.48v-2.93c0-0.82 0.66-1.48 1.48-1.48h3.09z"/>
<path id="kl" d="m383.57 431c0.81 0 1.48 0.66 1.48 1.48v2.93c0 0.82-0.67 1.48-1.48 1.48h-3.09c-0.82 0-1.48-0.66-1.48-1.48v-2.93c0-0.82 0.66-1.48 1.48-1.48h3.09z"/>
<path id="jh" d="m408.41 446.88c0.82 0 1.49 0.66 1.49 1.48v2.93c0 0.82-0.67 1.48-1.49 1.48h-3.08c-0.82 0-1.49-0.66-1.49-1.48v-2.93c0-0.82 0.67-1.48 1.49-1.48h3.08z"/>
<path id="ih" d="m420.51 431c0.82 0 1.49 0.66 1.49 1.48v2.93c0 0.82-0.67 1.48-1.49 1.48h-3.08c-0.82 0-1.48-0.66-1.48-1.48v-2.93c0-0.82 0.66-1.48 1.48-1.48h3.08z"/>
<path id="b" d="m395.67 431c0.82 0 1.48 0.66 1.48 1.48v2.93c0 0.82-0.66 1.48-1.48 1.48h-3.09c-0.82 0-1.48-0.66-1.48-1.48v-2.93c0-0.82 0.66-1.48 1.48-1.48h3.09z"/>
<path id="im" d="m395.67 446.88c0.82 0 1.48 0.66 1.48 1.48v2.93c0 0.82-0.66 1.48-1.48 1.48h-3.09c-0.82 0-1.48-0.66-1.48-1.48v-2.93c0-0.82 0.66-1.48 1.48-1.48h3.09z"/>
<path id="ka" d="m401.85 439.16c0.82 0 1.48 0.67 1.48 1.49v2.92c0 0.82-0.66 1.48-1.48 1.48h-3.09c-0.82 0-1.48-0.66-1.48-1.48v-2.92c0-0.82 0.66-1.49 1.48-1.49h3.09z"/>
<path id="je" d="m420.51 446.88c0.82 0 1.49 0.66 1.49 1.48v2.93c0 0.82-0.67 1.48-1.49 1.48h-3.08c-0.82 0-1.48-0.66-1.48-1.48v-2.93c0-0.82 0.66-1.48 1.48-1.48h3.08z"/>
<path id="ik" d="m389.62 439.16c0.82 0 1.48 0.67 1.48 1.49v2.92c0 0.82-0.66 1.48-1.48 1.48h-3.09c-0.82 0-1.48-0.66-1.48-1.48v-2.92c0-0.82 0.66-1.49 1.48-1.49h3.09z"/>
<path id="hw" d="m408.41 431.3c0.82 0 1.49 0.67 1.49 1.49v2.92c0 0.82-0.67 1.48-1.49 1.48h-3.08c-0.82 0-1.49-0.66-1.49-1.48v-2.92c0-0.82 0.67-1.49 1.49-1.49h3.08z"/>
<path id="kv" d="m414.46 468.61c0.82 0 1.49-0.67 1.49-1.49v-2.92c0-0.82-0.67-1.48-1.49-1.48h-3.08c-0.82 0-1.48 0.66-1.48 1.48v2.92c0 0.82 0.66 1.49 1.48 1.49h3.08z"/>
<path id="ly" d="m383.57 460.89c0.81 0 1.48-0.66 1.48-1.48v-2.93c0-0.82-0.67-1.48-1.48-1.48h-3.09c-0.82 0-1.48 0.66-1.48 1.48v2.93c0 0.82 0.66 1.48 1.48 1.48h3.09z"/>
<path id="cq" d="m383.57 476.77c0.81 0 1.48-0.66 1.48-1.48v-2.93c0-0.82-0.67-1.48-1.48-1.48h-3.09c-0.82 0-1.48 0.66-1.48 1.48v2.93c0 0.82 0.66 1.48 1.48 1.48h3.09z"/>
<path id="lm" d="m408.41 460.89c0.82 0 1.49-0.66 1.49-1.48v-2.93c0-0.82-0.67-1.48-1.49-1.48h-3.08c-0.82 0-1.49 0.66-1.49 1.48v2.93c0 0.82 0.67 1.48 1.49 1.48h3.08z"/>
<path id="cf" d="m420.51 476.77c0.82 0 1.49-0.66 1.49-1.48v-2.93c0-0.82-0.67-1.48-1.49-1.48h-3.08c-0.82 0-1.48 0.66-1.48 1.48v2.93c0 0.82 0.66 1.48 1.48 1.48h3.08z"/>
<path id="eq" d="m395.67 476.77c0.82 0 1.48-0.66 1.48-1.48v-2.93c0-0.82-0.66-1.48-1.48-1.48h-3.09c-0.82 0-1.48 0.66-1.48 1.48v2.93c0 0.82 0.66 1.48 1.48 1.48h3.09z"/>
<path id="t" d="m395.67 460.89c0.82 0 1.48-0.66 1.48-1.48v-2.93c0-0.82-0.66-1.48-1.48-1.48h-3.09c-0.82 0-1.48 0.66-1.48 1.48v2.93c0 0.82 0.66 1.48 1.48 1.48h3.09z"/>
<path id="gz" d="m401.85 468.61c0.82 0 1.48-0.67 1.48-1.49v-2.92c0-0.82-0.66-1.48-1.48-1.48h-3.09c-0.82 0-1.48 0.66-1.48 1.48v2.92c0 0.82 0.66 1.49 1.48 1.49h3.09z"/>
<path id="lb" d="m420.51 460.89c0.82 0 1.49-0.66 1.49-1.48v-2.93c0-0.82-0.67-1.48-1.49-1.48h-3.08c-0.82 0-1.48 0.66-1.48 1.48v2.93c0 0.82 0.66 1.48 1.48 1.48h3.08z"/>
<path id="gu" d="m389.62 468.61c0.82 0 1.48-0.67 1.48-1.49v-2.92c0-0.82-0.66-1.48-1.48-1.48h-3.09c-0.82 0-1.48 0.66-1.48 1.48v2.92c0 0.82 0.66 1.49 1.48 1.49h3.09z"/>
<path id="iz" d="m408.41 476.47c0.82 0 1.49-0.67 1.49-1.49v-2.92c0-0.82-0.67-1.48-1.49-1.48h-3.08c-0.82 0-1.49 0.66-1.49 1.48v2.92c0 0.82 0.67 1.49 1.49 1.49h3.08z"/>
<path id="jx" d="m414.46 492.61c0.82 0 1.49-0.67 1.49-1.49v-2.92c0-0.82-0.67-1.48-1.49-1.48h-3.08c-0.82 0-1.48 0.66-1.48 1.48v2.92c0 0.82 0.66 1.49 1.48 1.49h3.08z"/>
<path id="dz" d="m383.57 484.89c0.81 0 1.48-0.66 1.48-1.48v-2.93c0-0.82-0.67-1.48-1.48-1.48h-3.09c-0.82 0-1.48 0.66-1.48 1.48v2.93c0 0.82 0.66 1.48 1.48 1.48h3.09z"/>
<path id="gd" d="m383.57 500.77c0.81 0 1.48-0.66 1.48-1.48v-2.93c0-0.82-0.67-1.48-1.48-1.48h-3.09c-0.82 0-1.48 0.66-1.48 1.48v2.93c0 0.82 0.66 1.48 1.48 1.48h3.09z"/>
<path id="ee" d="m408.41 484.89c0.82 0 1.49-0.66 1.49-1.48v-2.93c0-0.82-0.67-1.48-1.49-1.48h-3.08c-0.82 0-1.49 0.66-1.49 1.48v2.93c0 0.82 0.67 1.48 1.49 1.48h3.08z"/>
<path id="jv" d="m420.51 500.77c0.82 0 1.49-0.66 1.49-1.48v-2.93c0-0.82-0.67-1.48-1.49-1.48h-3.08c-0.82 0-1.48 0.66-1.48 1.48v2.93c0 0.82 0.66 1.48 1.48 1.48h3.08z"/>
<path id="kw" d="m395.67 500.77c0.82 0 1.48-0.66 1.48-1.48v-2.93c0-0.82-0.66-1.48-1.48-1.48h-3.09c-0.82 0-1.48 0.66-1.48 1.48v2.93c0 0.82 0.66 1.48 1.48 1.48h3.09z"/>
<path id="fr" d="m395.67 484.89c0.82 0 1.48-0.66 1.48-1.48v-2.93c0-0.82-0.66-1.48-1.48-1.48h-3.09c-0.82 0-1.48 0.66-1.48 1.48v2.93c0 0.82 0.66 1.48 1.48 1.48h3.09z"/>
<path id="la" d="m401.85 492.61c0.82 0 1.48-0.67 1.48-1.49v-2.92c0-0.82-0.66-1.48-1.48-1.48h-3.09c-0.82 0-1.48 0.66-1.48 1.48v2.92c0 0.82 0.66 1.49 1.48 1.49h3.09z"/>
<path id="cz" d="m420.51 484.89c0.82 0 1.49-0.66 1.49-1.48v-2.93c0-0.82-0.67-1.48-1.49-1.48h-3.08c-0.82 0-1.48 0.66-1.48 1.48v2.93c0 0.82 0.66 1.48 1.48 1.48h3.08z"/>
<path id="ap" d="m389.62 492.61c0.82 0 1.48-0.67 1.48-1.49v-2.92c0-0.82-0.66-1.48-1.48-1.48h-3.09c-0.82 0-1.48 0.66-1.48 1.48v2.92c0 0.82 0.66 1.49 1.48 1.49h3.09z"/>
<path id="ja" d="m408.41 500.47c0.82 0 1.49-0.67 1.49-1.49v-2.92c0-0.82-0.67-1.48-1.49-1.48h-3.08c-0.82 0-1.49 0.66-1.49 1.48v2.92c0 0.82 0.67 1.49 1.49 1.49h3.08z"/>
<path id="bn" d="m414.46 516.61c0.82 0 1.49-0.67 1.49-1.49v-2.92c0-0.82-0.67-1.48-1.49-1.48h-3.08c-0.82 0-1.48 0.66-1.48 1.48v2.92c0 0.82 0.66 1.49 1.48 1.49h3.08z"/>
<path id="eb" d="m383.57 508.89c0.81 0 1.48-0.66 1.48-1.48v-2.93c0-0.82-0.67-1.48-1.48-1.48h-3.09c-0.82 0-1.48 0.66-1.48 1.48v2.93c0 0.82 0.66 1.48 1.48 1.48h3.09z"/>
<path id="ld" d="m383.57 524.77c0.81 0 1.48-0.66 1.48-1.48v-2.93c0-0.82-0.67-1.48-1.48-1.48h-3.09c-0.82 0-1.48 0.66-1.48 1.48v2.93c0 0.82 0.66 1.48 1.48 1.48h3.09z"/>
<path id="gm" d="m408.41 508.89c0.82 0 1.49-0.66 1.49-1.48v-2.93c0-0.82-0.67-1.48-1.49-1.48h-3.08c-0.82 0-1.49 0.66-1.49 1.48v2.93c0 0.82 0.67 1.48 1.49 1.48h3.08z"/>
<path id="kn" d="m420.51 524.77c0.82 0 1.49-0.66 1.49-1.48v-2.93c0-0.82-0.67-1.48-1.49-1.48h-3.08c-0.82 0-1.48 0.66-1.48 1.48v2.93c0 0.82 0.66 1.48 1.48 1.48h3.08z"/>
<path id="ie" d="m395.67 524.77c0.82 0 1.48-0.66 1.48-1.48v-2.93c0-0.82-0.66-1.48-1.48-1.48h-3.09c-0.82 0-1.48 0.66-1.48 1.48v2.93c0 0.82 0.66 1.48 1.48 1.48h3.09z"/>
<path id="dn" d="m395.67 508.89c0.82 0 1.48-0.66 1.48-1.48v-2.93c0-0.82-0.66-1.48-1.48-1.48h-3.09c-0.82 0-1.48 0.66-1.48 1.48v2.93c0 0.82 0.66 1.48 1.48 1.48h3.09z"/>
<path id="ku" d="m401.85 516.61c0.82 0 1.48-0.67 1.48-1.49v-2.92c0-0.82-0.66-1.48-1.48-1.48h-3.09c-0.82 0-1.48 0.66-1.48 1.48v2.92c0 0.82 0.66 1.49 1.48 1.49h3.09z"/>
<path id="lu" d="m420.51 508.89c0.82 0 1.49-0.66 1.49-1.48v-2.93c0-0.82-0.67-1.48-1.49-1.48h-3.08c-0.82 0-1.48 0.66-1.48 1.48v2.93c0 0.82 0.66 1.48 1.48 1.48h3.08z"/>
<path id="d" d="m389.62 516.61c0.82 0 1.48-0.67 1.48-1.49v-2.92c0-0.82-0.66-1.48-1.48-1.48h-3.09c-0.82 0-1.48 0.66-1.48 1.48v2.92c0 0.82 0.66 1.49 1.48 1.49h3.09z"/>
<path id="lv" d="m408.41 524.47c0.82 0 1.49-0.67 1.49-1.49v-2.92c0-0.82-0.67-1.48-1.49-1.48h-3.08c-0.82 0-1.49 0.66-1.49 1.48v2.92c0 0.82 0.67 1.49 1.49 1.49h3.08z"/>
<path id="cp" d="m414.46 540.61c0.82 0 1.49-0.67 1.49-1.49v-2.92c0-0.82-0.67-1.48-1.49-1.48h-3.08c-0.82 0-1.48 0.66-1.48 1.48v2.92c0 0.82 0.66 1.49 1.48 1.49h3.08z"/>
<path id="jc" d="m383.57 532.89c0.81 0 1.48-0.66 1.48-1.48v-2.93c0-0.82-0.67-1.48-1.48-1.48h-3.09c-0.82 0-1.48 0.66-1.48 1.48v2.93c0 0.82 0.66 1.48 1.48 1.48h3.09z"/>
<path id="jg" d="m383.57 548.77c0.81 0 1.48-0.66 1.48-1.48v-2.93c0-0.82-0.67-1.48-1.48-1.48h-3.09c-0.82 0-1.48 0.66-1.48 1.48v2.93c0 0.82 0.66 1.48 1.48 1.48h3.09z"/>
<path id="gh" d="m408.41 532.89c0.82 0 1.49-0.66 1.49-1.48v-2.93c0-0.82-0.67-1.48-1.49-1.48h-3.08c-0.82 0-1.49 0.66-1.49 1.48v2.93c0 0.82 0.67 1.48 1.49 1.48h3.08z"/>
<path id="co" d="m420.51 548.77c0.82 0 1.49-0.66 1.49-1.48v-2.93c0-0.82-0.67-1.48-1.49-1.48h-3.08c-0.82 0-1.48 0.66-1.48 1.48v2.93c0 0.82 0.66 1.48 1.48 1.48h3.08z"/>
<path id="et" d="m395.67 548.77c0.82 0 1.48-0.66 1.48-1.48v-2.93c0-0.82-0.66-1.48-1.48-1.48h-3.09c-0.82 0-1.48 0.66-1.48 1.48v2.93c0 0.82 0.66 1.48 1.48 1.48h3.09z"/>
<path id="bw" d="m395.67 532.89c0.82 0 1.48-0.66 1.48-1.48v-2.93c0-0.82-0.66-1.48-1.48-1.48h-3.09c-0.82 0-1.48 0.66-1.48 1.48v2.93c0 0.82 0.66 1.48 1.48 1.48h3.09z"/>
<path id="in" d="m401.85 540.61c0.82 0 1.48-0.67 1.48-1.49v-2.92c0-0.82-0.66-1.48-1.48-1.48h-3.09c-0.82 0-1.48 0.66-1.48 1.48v2.92c0 0.82 0.66 1.49 1.48 1.49h3.09z"/>
<path id="fi" d="m420.51 532.89c0.82 0 1.49-0.66 1.49-1.48v-2.93c0-0.82-0.67-1.48-1.49-1.48h-3.08c-0.82 0-1.48 0.66-1.48 1.48v2.93c0 0.82 0.66 1.48 1.48 1.48h3.08z"/>
<path id="s" d="m389.62 540.61c0.82 0 1.48-0.67 1.48-1.49v-2.92c0-0.82-0.66-1.48-1.48-1.48h-3.09c-0.82 0-1.48 0.66-1.48 1.48v2.92c0 0.82 0.66 1.49 1.48 1.49h3.09z"/>
<path id="x" d="m408.41 548.47c0.82 0 1.49-0.67 1.49-1.49v-2.92c0-0.82-0.67-1.48-1.49-1.48h-3.08c-0.82 0-1.49 0.66-1.49 1.48v2.92c0 0.82 0.67 1.49 1.49 1.49h3.08z"/>
<path id="ak" d="m250 466.62c0 0.6-0.49 1.09-1.09 1.09h-2.15c-0.6 0-1.09-0.49-1.09-1.09v-2.69c0-0.6 0.49-1.08 1.09-1.08h2.15c0.6 0 1.09 0.48 1.09 1.08v2.69z"/>
<path id="kj" d="m244.33 441.77c0 0.61-0.49 1.09-1.09 1.09h-2.15c-0.61 0-1.09-0.48-1.09-1.09v-2.68c0-0.6 0.48-1.09 1.09-1.09h2.15c0.6 0 1.09 0.49 1.09 1.09v2.68z"/>
<path id="cv" d="m256 441.77c0 0.61-0.49 1.09-1.09 1.09h-2.15c-0.6 0-1.09-0.48-1.09-1.09v-2.68c0-0.6 0.49-1.09 1.09-1.09h2.15c0.6 0 1.09 0.49 1.09 1.09v2.68z"/>
<path id="gi" d="m244.33 461.76c0 0.6-0.49 1.09-1.09 1.09h-2.15c-0.61 0-1.09-0.49-1.09-1.09v-2.69c0-0.6 0.48-1.09 1.09-1.09h2.15c0.6 0 1.09 0.49 1.09 1.09v2.69z"/>
<path id="cs" d="m256 471.49c0 0.6-0.49 1.09-1.09 1.09h-2.15c-0.6 0-1.09-0.49-1.09-1.09v-2.69c0-0.6 0.49-1.09 1.09-1.09h2.15c0.6 0 1.09 0.49 1.09 1.09v2.69z"/>
<path id="kz" d="m256 451.51c0 0.6-0.49 1.09-1.09 1.09h-2.15c-0.6 0-1.09-0.49-1.09-1.09v-2.69c0-0.6 0.49-1.09 1.09-1.09h2.15c0.6 0 1.09 0.49 1.09 1.09v2.69z"/>
<path id="am" d="m244.33 451.51c0 0.6-0.49 1.09-1.09 1.09h-2.15c-0.61 0-1.09-0.49-1.09-1.09v-2.69c0-0.6 0.48-1.09 1.09-1.09h2.15c0.6 0 1.09 0.49 1.09 1.09v2.69z"/>
<path id="go" d="m250 456.48c0 0.6-0.49 1.09-1.09 1.09h-2.15c-0.6 0-1.09-0.49-1.09-1.09v-2.69c0-0.6 0.49-1.09 1.09-1.09h2.15c0.6 0 1.09 0.49 1.09 1.09v2.69z"/>
<path id="er" d="m244.33 471.49c0 0.6-0.49 1.09-1.09 1.09h-2.15c-0.61 0-1.09-0.49-1.09-1.09v-2.69c0-0.6 0.48-1.09 1.09-1.09h2.15c0.6 0 1.09 0.49 1.09 1.09v2.69z"/>
<path id="k" d="m250 446.64c0 0.6-0.49 1.09-1.09 1.09h-2.15c-0.6 0-1.09-0.49-1.09-1.09v-2.69c0-0.6 0.49-1.09 1.09-1.09h2.15c0.6 0 1.09 0.49 1.09 1.09v2.69z"/>
<path id="jy" d="m255.77 461.76c0 0.6-0.48 1.09-1.09 1.09h-2.15c-0.6 0-1.09-0.49-1.09-1.09v-2.69c0-0.6 0.49-1.09 1.09-1.09h2.15c0.61 0 1.09 0.49 1.09 1.09v2.69z"/>
<path id="is" d="m281 466.62c0 0.6-0.49 1.09-1.09 1.09h-2.15c-0.6 0-1.09-0.49-1.09-1.09v-2.69c0-0.6 0.49-1.08 1.09-1.08h2.15c0.6 0 1.09 0.48 1.09 1.08v2.69z"/>
<path id="iy" d="m275.33 441.77c0 0.61-0.49 1.09-1.09 1.09h-2.15c-0.61 0-1.09-0.48-1.09-1.09v-2.68c0-0.6 0.48-1.09 1.09-1.09h2.15c0.6 0 1.09 0.49 1.09 1.09v2.68z"/>
<path id="ft" d="m287 441.77c0 0.61-0.49 1.09-1.09 1.09h-2.15c-0.6 0-1.09-0.48-1.09-1.09v-2.68c0-0.6 0.49-1.09 1.09-1.09h2.15c0.6 0 1.09 0.49 1.09 1.09v2.68z"/>
<path id="ji" d="m275.33 461.76c0 0.6-0.49 1.09-1.09 1.09h-2.15c-0.61 0-1.09-0.49-1.09-1.09v-2.69c0-0.6 0.48-1.09 1.09-1.09h2.15c0.6 0 1.09 0.49 1.09 1.09v2.69z"/>
<path id="ax" d="m287 471.49c0 0.6-0.49 1.09-1.09 1.09h-2.15c-0.6 0-1.09-0.49-1.09-1.09v-2.69c0-0.6 0.49-1.09 1.09-1.09h2.15c0.6 0 1.09 0.49 1.09 1.09v2.69z"/>
<path id="fw" d="m287 451.51c0 0.6-0.49 1.09-1.09 1.09h-2.15c-0.6 0-1.09-0.49-1.09-1.09v-2.69c0-0.6 0.49-1.09 1.09-1.09h2.15c0.6 0 1.09 0.49 1.09 1.09v2.69z"/>
<path id="iu" d="m275.33 451.51c0 0.6-0.49 1.09-1.09 1.09h-2.15c-0.61 0-1.09-0.49-1.09-1.09v-2.69c0-0.6 0.48-1.09 1.09-1.09h2.15c0.6 0 1.09 0.49 1.09 1.09v2.69z"/>
<path id="kk" d="m281 456.48c0 0.6-0.49 1.09-1.09 1.09h-2.15c-0.6 0-1.09-0.49-1.09-1.09v-2.69c0-0.6 0.49-1.09 1.09-1.09h2.15c0.6 0 1.09 0.49 1.09 1.09v2.69z"/>
<path id="hx" d="m275.33 471.49c0 0.6-0.49 1.09-1.09 1.09h-2.15c-0.61 0-1.09-0.49-1.09-1.09v-2.69c0-0.6 0.48-1.09 1.09-1.09h2.15c0.6 0 1.09 0.49 1.09 1.09v2.69z"/>
<path id="gg" d="m281 446.64c0 0.6-0.49 1.09-1.09 1.09h-2.15c-0.6 0-1.09-0.49-1.09-1.09v-2.69c0-0.6 0.49-1.09 1.09-1.09h2.15c0.6 0 1.09 0.49 1.09 1.09v2.69z"/>
<path id="kp" d="m286.77 461.76c0 0.6-0.48 1.09-1.09 1.09h-2.15c-0.6 0-1.09-0.49-1.09-1.09v-2.69c0-0.6 0.49-1.09 1.09-1.09h2.15c0.61 0 1.09 0.49 1.09 1.09v2.69z"/>
<path id="ep" d="m281 506.62c0 0.6-0.49 1.09-1.09 1.09h-2.15c-0.6 0-1.09-0.49-1.09-1.09v-2.69c0-0.6 0.49-1.08 1.09-1.08h2.15c0.6 0 1.09 0.48 1.09 1.08v2.69z"/>
<path id="js" d="m275.33 481.77c0 0.61-0.49 1.09-1.09 1.09h-2.15c-0.61 0-1.09-0.48-1.09-1.09v-2.68c0-0.6 0.48-1.09 1.09-1.09h2.15c0.6 0 1.09 0.49 1.09 1.09v2.68z"/>
<path id="z" d="m287 481.77c0 0.61-0.49 1.09-1.09 1.09h-2.15c-0.6 0-1.09-0.48-1.09-1.09v-2.68c0-0.6 0.49-1.09 1.09-1.09h2.15c0.6 0 1.09 0.49 1.09 1.09v2.68z"/>
<path id="aa" d="m275.33 501.76c0 0.6-0.49 1.09-1.09 1.09h-2.15c-0.61 0-1.09-0.49-1.09-1.09v-2.69c0-0.6 0.48-1.09 1.09-1.09h2.15c0.6 0 1.09 0.49 1.09 1.09v2.69z"/>
<path id="hf" d="m287 511.49c0 0.6-0.49 1.09-1.09 1.09h-2.15c-0.6 0-1.09-0.49-1.09-1.09v-2.69c0-0.6 0.49-1.09 1.09-1.09h2.15c0.6 0 1.09 0.49 1.09 1.09v2.69z"/>
<path id="be" d="m287 491.51c0 0.6-0.49 1.09-1.09 1.09h-2.15c-0.6 0-1.09-0.49-1.09-1.09v-2.69c0-0.6 0.49-1.09 1.09-1.09h2.15c0.6 0 1.09 0.49 1.09 1.09v2.69z"/>
<path id="dh" d="m275.33 491.51c0 0.6-0.49 1.09-1.09 1.09h-2.15c-0.61 0-1.09-0.49-1.09-1.09v-2.69c0-0.6 0.48-1.09 1.09-1.09h2.15c0.6 0 1.09 0.49 1.09 1.09v2.69z"/>
<path id="eh" d="m281 496.48c0 0.6-0.49 1.09-1.09 1.09h-2.15c-0.6 0-1.09-0.49-1.09-1.09v-2.69c0-0.6 0.49-1.09 1.09-1.09h2.15c0.6 0 1.09 0.49 1.09 1.09v2.69z"/>
<path id="u" d="m275.33 511.49c0 0.6-0.49 1.09-1.09 1.09h-2.15c-0.61 0-1.09-0.49-1.09-1.09v-2.69c0-0.6 0.48-1.09 1.09-1.09h2.15c0.6 0 1.09 0.49 1.09 1.09v2.69z"/>
<path id="kx" d="m281 486.64c0 0.6-0.49 1.09-1.09 1.09h-2.15c-0.6 0-1.09-0.49-1.09-1.09v-2.69c0-0.6 0.49-1.09 1.09-1.09h2.15c0.6 0 1.09 0.49 1.09 1.09v2.69z"/>
<path id="aw" d="m286.77 501.76c0 0.6-0.48 1.09-1.09 1.09h-2.15c-0.6 0-1.09-0.49-1.09-1.09v-2.69c0-0.6 0.49-1.09 1.09-1.09h2.15c0.61 0 1.09 0.49 1.09 1.09v2.69z"/>
<path id="ab" d="m250 506.62c0 0.6-0.49 1.09-1.09 1.09h-2.15c-0.6 0-1.09-0.49-1.09-1.09v-2.69c0-0.6 0.49-1.08 1.09-1.08h2.15c0.6 0 1.09 0.48 1.09 1.08v2.69z"/>
<path id="gr" d="m244.33 481.77c0 0.61-0.49 1.09-1.09 1.09h-2.15c-0.61 0-1.09-0.48-1.09-1.09v-2.68c0-0.6 0.48-1.09 1.09-1.09h2.15c0.6 0 1.09 0.49 1.09 1.09v2.68z"/>
<path id="ed" d="m256 481.77c0 0.61-0.49 1.09-1.09 1.09h-2.15c-0.6 0-1.09-0.48-1.09-1.09v-2.68c0-0.6 0.49-1.09 1.09-1.09h2.15c0.6 0 1.09 0.49 1.09 1.09v2.68z"/>
<path id="br" d="m244.33 501.76c0 0.6-0.49 1.09-1.09 1.09h-2.15c-0.61 0-1.09-0.49-1.09-1.09v-2.69c0-0.6 0.48-1.09 1.09-1.09h2.15c0.6 0 1.09 0.49 1.09 1.09v2.69z"/>
<path id="dy" d="m256 511.49c0 0.6-0.49 1.09-1.09 1.09h-2.15c-0.6 0-1.09-0.49-1.09-1.09v-2.69c0-0.6 0.49-1.09 1.09-1.09h2.15c0.6 0 1.09 0.49 1.09 1.09v2.69z"/>
<path id="fb" d="m256 491.51c0 0.6-0.49 1.09-1.09 1.09h-2.15c-0.6 0-1.09-0.49-1.09-1.09v-2.69c0-0.6 0.49-1.09 1.09-1.09h2.15c0.6 0 1.09 0.49 1.09 1.09v2.69z"/>
<path id="h" d="m244.33 491.51c0 0.6-0.49 1.09-1.09 1.09h-2.15c-0.61 0-1.09-0.49-1.09-1.09v-2.69c0-0.6 0.48-1.09 1.09-1.09h2.15c0.6 0 1.09 0.49 1.09 1.09v2.69z"/>
<path id="p" d="m250 496.48c0 0.6-0.49 1.09-1.09 1.09h-2.15c-0.6 0-1.09-0.49-1.09-1.09v-2.69c0-0.6 0.49-1.09 1.09-1.09h2.15c0.6 0 1.09 0.49 1.09 1.09v2.69z"/>
<path id="de" d="m244.33 511.49c0 0.6-0.49 1.09-1.09 1.09h-2.15c-0.61 0-1.09-0.49-1.09-1.09v-2.69c0-0.6 0.48-1.09 1.09-1.09h2.15c0.6 0 1.09 0.49 1.09 1.09v2.69z"/>
<path id="fj" d="m250 486.64c0 0.6-0.49 1.09-1.09 1.09h-2.15c-0.6 0-1.09-0.49-1.09-1.09v-2.69c0-0.6 0.49-1.09 1.09-1.09h2.15c0.6 0 1.09 0.49 1.09 1.09v2.69z"/>
<path id="es" d="m255.77 501.76c0 0.6-0.48 1.09-1.09 1.09h-2.15c-0.6 0-1.09-0.49-1.09-1.09v-2.69c0-0.6 0.49-1.09 1.09-1.09h2.15c0.61 0 1.09 0.49 1.09 1.09v2.69z"/>
<path id="lh" d="m281 546.62c0 0.6-0.49 1.09-1.09 1.09h-2.15c-0.6 0-1.09-0.49-1.09-1.09v-2.69c0-0.6 0.49-1.08 1.09-1.08h2.15c0.6 0 1.09 0.48 1.09 1.08v2.69z"/>
<path id="fa" d="m275.33 521.77c0 0.61-0.49 1.09-1.09 1.09h-2.15c-0.61 0-1.09-0.48-1.09-1.09v-2.68c0-0.6 0.48-1.09 1.09-1.09h2.15c0.6 0 1.09 0.49 1.09 1.09v2.68z"/>
<path id="hc" d="m287 521.77c0 0.61-0.49 1.09-1.09 1.09h-2.15c-0.6 0-1.09-0.48-1.09-1.09v-2.68c0-0.6 0.49-1.09 1.09-1.09h2.15c0.6 0 1.09 0.49 1.09 1.09v2.68z"/>
<path id="eo" d="m275.33 541.76c0 0.6-0.49 1.09-1.09 1.09h-2.15c-0.61 0-1.09-0.49-1.09-1.09v-2.69c0-0.6 0.48-1.09 1.09-1.09h2.15c0.6 0 1.09 0.49 1.09 1.09v2.69z"/>
<path id="da" d="m287 551.49c0 0.6-0.49 1.09-1.09 1.09h-2.15c-0.6 0-1.09-0.49-1.09-1.09v-2.69c0-0.6 0.49-1.09 1.09-1.09h2.15c0.6 0 1.09 0.49 1.09 1.09v2.69z"/>
<path id="hv" d="m287 531.51c0 0.6-0.49 1.09-1.09 1.09h-2.15c-0.6 0-1.09-0.49-1.09-1.09v-2.69c0-0.6 0.49-1.09 1.09-1.09h2.15c0.6 0 1.09 0.49 1.09 1.09v2.69z"/>
<path id="hi" d="m275.33 531.51c0 0.6-0.49 1.09-1.09 1.09h-2.15c-0.61 0-1.09-0.49-1.09-1.09v-2.69c0-0.6 0.48-1.09 1.09-1.09h2.15c0.6 0 1.09 0.49 1.09 1.09v2.69z"/>
<path id="dj" d="m281 536.48c0 0.6-0.49 1.09-1.09 1.09h-2.15c-0.6 0-1.09-0.49-1.09-1.09v-2.69c0-0.6 0.49-1.09 1.09-1.09h2.15c0.6 0 1.09 0.49 1.09 1.09v2.69z"/>
<path id="fq" d="m275.33 551.49c0 0.6-0.49 1.09-1.09 1.09h-2.15c-0.61 0-1.09-0.49-1.09-1.09v-2.69c0-0.6 0.48-1.09 1.09-1.09h2.15c0.6 0 1.09 0.49 1.09 1.09v2.69z"/>
<path id="ec" d="m281 526.64c0 0.6-0.49 1.09-1.09 1.09h-2.15c-0.6 0-1.09-0.49-1.09-1.09v-2.69c0-0.6 0.49-1.09 1.09-1.09h2.15c0.6 0 1.09 0.49 1.09 1.09v2.69z"/>
<path id="ex" d="m286.77 541.76c0 0.6-0.48 1.09-1.09 1.09h-2.15c-0.6 0-1.09-0.49-1.09-1.09v-2.69c0-0.6 0.49-1.09 1.09-1.09h2.15c0.61 0 1.09 0.49 1.09 1.09v2.69z"/>
<path id="ay" d="m251 546.62c0 0.6-0.49 1.09-1.09 1.09h-2.15c-0.6 0-1.09-0.49-1.09-1.09v-2.69c0-0.6 0.49-1.08 1.09-1.08h2.15c0.6 0 1.09 0.48 1.09 1.08v2.69z"/>
<path id="ez" d="m245.33 521.77c0 0.61-0.49 1.09-1.09 1.09h-2.15c-0.61 0-1.09-0.48-1.09-1.09v-2.68c0-0.6 0.48-1.09 1.09-1.09h2.15c0.6 0 1.09 0.49 1.09 1.09v2.68z"/>
<path id="bg" d="m257 521.77c0 0.61-0.49 1.09-1.09 1.09h-2.15c-0.6 0-1.09-0.48-1.09-1.09v-2.68c0-0.6 0.49-1.09 1.09-1.09h2.15c0.6 0 1.09 0.49 1.09 1.09v2.68z"/>
<path id="ls" d="m245.33 541.76c0 0.6-0.49 1.09-1.09 1.09h-2.15c-0.61 0-1.09-0.49-1.09-1.09v-2.69c0-0.6 0.48-1.09 1.09-1.09h2.15c0.6 0 1.09 0.49 1.09 1.09v2.69z"/>
<path id="lj" d="m257 551.49c0 0.6-0.49 1.09-1.09 1.09h-2.15c-0.6 0-1.09-0.49-1.09-1.09v-2.69c0-0.6 0.49-1.09 1.09-1.09h2.15c0.6 0 1.09 0.49 1.09 1.09v2.69z"/>
<path id="hk" d="m257 531.51c0 0.6-0.49 1.09-1.09 1.09h-2.15c-0.6 0-1.09-0.49-1.09-1.09v-2.69c0-0.6 0.49-1.09 1.09-1.09h2.15c0.6 0 1.09 0.49 1.09 1.09v2.69z"/>
<path id="ea" d="m245.33 531.51c0 0.6-0.49 1.09-1.09 1.09h-2.15c-0.61 0-1.09-0.49-1.09-1.09v-2.69c0-0.6 0.48-1.09 1.09-1.09h2.15c0.6 0 1.09 0.49 1.09 1.09v2.69z"/>
<path id="io" d="m251 536.48c0 0.6-0.49 1.09-1.09 1.09h-2.15c-0.6 0-1.09-0.49-1.09-1.09v-2.69c0-0.6 0.49-1.09 1.09-1.09h2.15c0.6 0 1.09 0.49 1.09 1.09v2.69z"/>
<path id="hz" d="m245.33 551.49c0 0.6-0.49 1.09-1.09 1.09h-2.15c-0.61 0-1.09-0.49-1.09-1.09v-2.69c0-0.6 0.48-1.09 1.09-1.09h2.15c0.6 0 1.09 0.49 1.09 1.09v2.69z"/>
<path id="hn" d="m251 526.64c0 0.6-0.49 1.09-1.09 1.09h-2.15c-0.6 0-1.09-0.49-1.09-1.09v-2.69c0-0.6 0.49-1.09 1.09-1.09h2.15c0.6 0 1.09 0.49 1.09 1.09v2.69z"/>
<path id="it" d="m256.77 541.76c0 0.6-0.48 1.09-1.09 1.09h-2.15c-0.6 0-1.09-0.49-1.09-1.09v-2.69c0-0.6 0.49-1.09 1.09-1.09h2.15c0.61 0 1.09 0.49 1.09 1.09v2.69z"/>
<path id="fo" d="m615.63 602c0.21 0 0.39 0.17 0.39 0.39v3.22c0 0.21-0.18 0.39-0.39 0.39h-0.24c-0.22 0-0.39-0.18-0.39-0.39v-3.22c0-0.22 0.17-0.39 0.39-0.39h0.24z"/>
<path id="lo" d="m629.61 602c0.21 0 0.39 0.17 0.39 0.39v3.22c0 0.21-0.18 0.39-0.39 0.39h-0.24c-0.22 0-0.39-0.18-0.39-0.39v-3.22c0-0.22 0.17-0.39 0.39-0.39h0.24z"/>
<path id="af" d="m625.75 602c0.22 0 0.39 0.17 0.39 0.39v3.22c0 0.21-0.17 0.39-0.39 0.39h-0.24c-0.21 0-0.39-0.18-0.39-0.39v-3.22c0-0.22 0.18-0.39 0.39-0.39h0.24z"/>
<path id="dv" d="m619.58 602c0.22 0 0.39 0.17 0.39 0.39v3.22c0 0.21-0.17 0.39-0.39 0.39h-0.24c-0.21 0-0.39-0.18-0.39-0.39v-3.22c0-0.22 0.18-0.39 0.39-0.39h0.24z"/>
<path id="lr" d="m622.5 602c0.22 0 0.39 0.17 0.39 0.39v3.22c0 0.21-0.17 0.39-0.39 0.39h-0.24c-0.22 0-0.39-0.18-0.39-0.39v-3.22c0-0.22 0.17-0.39 0.39-0.39h0.24z"/>
<path id="mc" d="m615.63 601c0.21 0 0.39 0.17 0.39 0.39v3.22c0 0.21-0.18 0.39-0.39 0.39h-0.24c-0.22 0-0.39-0.18-0.39-0.39v-3.22c0-0.22 0.17-0.39 0.39-0.39h0.24z"/>
<path id="no" d="m629.61 601c0.21 0 0.39 0.17 0.39 0.39v3.22c0 0.21-0.18 0.39-0.39 0.39h-0.24c-0.22 0-0.39-0.18-0.39-0.39v-3.22c0-0.22 0.17-0.39 0.39-0.39h0.24z"/>
<path id="ng" d="m625.75 601c0.22 0 0.39 0.17 0.39 0.39v3.22c0 0.21-0.17 0.39-0.39 0.39h-0.24c-0.21 0-0.39-0.18-0.39-0.39v-3.22c0-0.22 0.18-0.39 0.39-0.39h0.24z"/>
<path id="mf" d="m619.58 601c0.22 0 0.39 0.17 0.39 0.39v3.22c0 0.21-0.17 0.39-0.39 0.39h-0.24c-0.21 0-0.39-0.18-0.39-0.39v-3.22c0-0.22 0.18-0.39 0.39-0.39h0.24z"/>
<path id="oe" d="m622.5 601c0.22 0 0.39 0.17 0.39 0.39v3.22c0 0.21-0.17 0.39-0.39 0.39h-0.24c-0.22 0-0.39-0.18-0.39-0.39v-3.22c0-0.22 0.17-0.39 0.39-0.39h0.24z"/>
<path id="mr" d="m615.63 608c0.21 0 0.39 0.17 0.39 0.39v3.22c0 0.21-0.18 0.39-0.39 0.39h-0.24c-0.22 0-0.39-0.18-0.39-0.39v-3.22c0-0.22 0.17-0.39 0.39-0.39h0.24z"/>
<path id="nr" d="m629.61 608c0.21 0 0.39 0.17 0.39 0.39v3.22c0 0.21-0.18 0.39-0.39 0.39h-0.24c-0.22 0-0.39-0.18-0.39-0.39v-3.22c0-0.22 0.17-0.39 0.39-0.39h0.24z"/>
<path id="ns" d="m625.75 608c0.22 0 0.39 0.17 0.39 0.39v3.22c0 0.21-0.17 0.39-0.39 0.39h-0.24c-0.21 0-0.39-0.18-0.39-0.39v-3.22c0-0.22 0.18-0.39 0.39-0.39h0.24z"/>
<path id="nf" d="m619.58 608c0.22 0 0.39 0.17 0.39 0.39v3.22c0 0.21-0.17 0.39-0.39 0.39h-0.24c-0.21 0-0.39-0.18-0.39-0.39v-3.22c0-0.22 0.18-0.39 0.39-0.39h0.24z"/>
<path id="od" d="m622.5 608c0.22 0 0.39 0.17 0.39 0.39v3.22c0 0.21-0.17 0.39-0.39 0.39h-0.24c-0.22 0-0.39-0.18-0.39-0.39v-3.22c0-0.22 0.17-0.39 0.39-0.39h0.24z"/>
<path id="nx" d="m5.63 615c0.21 0 0.39 0.17 0.39 0.39v3.22c0 0.21-0.18 0.39-0.39 0.39h-0.24c-0.22 0-0.39-0.18-0.39-0.39v-3.22c0-0.22 0.17-0.39 0.39-0.39h0.24z"/>
<path id="nu" d="m19.61 615c0.21 0 0.39 0.17 0.39 0.39v3.22c0 0.21-0.18 0.39-0.39 0.39h-0.24c-0.22 0-0.39-0.18-0.39-0.39v-3.22c0-0.22 0.17-0.39 0.39-0.39h0.24z"/>
<path id="mh" d="m15.75 615c0.22 0 0.39 0.17 0.39 0.39v3.22c0 0.21-0.17 0.39-0.39 0.39h-0.24c-0.21 0-0.39-0.18-0.39-0.39v-3.22c0-0.22 0.18-0.39 0.39-0.39h0.24z"/>
<path id="mq" d="m9.58 615c0.22 0 0.39 0.17 0.39 0.39v3.22c0 0.21-0.17 0.39-0.39 0.39h-0.24c-0.21 0-0.39-0.18-0.39-0.39v-3.22c0-0.22 0.18-0.39 0.39-0.39h0.24z"/>
<path id="ml" d="m12.5 615c0.22 0 0.39 0.17 0.39 0.39v3.22c0 0.21-0.17 0.39-0.39 0.39h-0.24c-0.22 0-0.39-0.18-0.39-0.39v-3.22c0-0.22 0.17-0.39 0.39-0.39h0.24z"/>
<path id="av" d="m553.14 526.34l10.17-6.62v15h-10.17v-8.38z"/>
</defs>
<use fill="#000000" xlink:href="#mx"/>
<use fill="#000000" xlink:href="#nz"/>
<use fill="#000000" xlink:href="#mi"/>
<use fill="#000000" xlink:href="#of"/>
<use fill="#000000" xlink:href="#mp"/>
<use fill="#000000" xlink:href="#mz"/>
<use fill="#000000" xlink:href="#nb"/>
<use fill="#000000" xlink:href="#nh"/>
<use fill="#000000" xlink:href="#oa"/>
<use fill="#000000" xlink:href="#ny"/>
<use fill="#000000" xlink:href="#mv"/>
<use fill="#000000" xlink:href="#mw"/>
<use fill="#000000" xlink:href="#mu"/>
<use fill="#000000" xlink:href="#nn"/>
<use fill="#000000" xlink:href="#mk"/>
<use fill-opacity="0" stroke="#17c496" xlink:href="#c47BI9yUzZ"/>
<use fill="#000000" xlink:href="#md"/>
<use fill="#000000" xlink:href="#np"/>
<use fill="#000000" xlink:href="#na"/>
<use fill="#000000" xlink:href="#nk"/>
<use fill-opacity="0" stroke="#17c496" xlink:href="#acuXauZja"/>
<use fill="#000000" xlink:href="#nd"/>
<use fill="#000000" xlink:href="#mn"/>
<use fill="#000000" xlink:href="#ms"/>
<use fill="#000000" xlink:href="#mt"/>
<use fill="#000000" xlink:href="#mj"/>
<use fill="#000000" xlink:href="#nt"/>
<use fill="#000000" xlink:href="#nv"/>
<use fill="#000000" xlink:href="#nm"/>
<use fill="#000000" xlink:href="#me"/>
<use fill="#000000" xlink:href="#ne"/>
<use fill="#000000" xlink:href="#my"/>
<use fill="#000000" xlink:href="#mb"/>
<use fill="#040304" xlink:href="#ni"/>
<use fill="#040304" xlink:href="#nc"/>
<use fill="#040304" xlink:href="#mg"/>
<use fill="#000000" xlink:href="#mo"/>
<use fill="#000000" xlink:href="#ob"/>
<use fill="#000000" xlink:href="#nj"/>
<use fill="#000000" xlink:href="#nw"/>
<use fill="#000000" xlink:href="#mm"/>
<use fill="#000000" xlink:href="#oc"/>
<use fill="#000000" xlink:href="#nl"/>
<use fill="#000000" xlink:href="#nq"/>
<use fill="#ffffff" xlink:href="#ga"/>
<use fill-opacity="0" stroke="#000000" xlink:href="#ga"/>
<use fill="#ffffff" xlink:href="#hp"/>
<use fill-opacity="0" stroke="#000000" xlink:href="#hp"/>
<use fill="#ffffff" xlink:href="#jz"/>
<use fill-opacity="0" stroke="#000000" xlink:href="#jz"/>
<use fill="#ffffff" xlink:href="#ij"/>
<use fill-opacity="0" stroke="#000000" xlink:href="#ij"/>
<use fill="#ffffff" xlink:href="#hb"/>
<use fill-opacity="0" stroke="#000000" xlink:href="#hb"/>
<use fill="#ffffff" xlink:href="#kr"/>
<use fill-opacity="0" stroke="#000000" xlink:href="#kr"/>
<use fill="#ffffff" xlink:href="#jf"/>
<use fill-opacity="0" stroke="#000000" xlink:href="#jf"/>
<use fill="#ffffff" xlink:href="#fe"/>
<use fill-opacity="0" stroke="#000000" xlink:href="#fe"/>
<use fill="#ffffff" xlink:href="#az"/>
<use fill-opacity="0" stroke="#000000" xlink:href="#az"/>
<use fill="#ffffff" xlink:href="#ia"/>
<use fill-opacity="0" stroke="#000000" xlink:href="#ia"/>
<use fill="#ffffff" xlink:href="#bc"/>
<use fill-opacity="0" stroke="#000000" xlink:href="#bc"/>
<use fill="#ffffff" xlink:href="#bm"/>
<use fill-opacity="0" stroke="#000000" xlink:href="#bm"/>
<use fill="#ffffff" xlink:href="#gt"/>
<use fill-opacity="0" stroke="#000000" xlink:href="#gt"/>
<use fill="#ffffff" xlink:href="#dp"/>
<use fill-opacity="0" stroke="#000000" xlink:href="#dp"/>
<use fill="#ffffff" xlink:href="#fp"/>
<use fill-opacity="0" stroke="#000000" xlink:href="#fp"/>
<use fill="#ffffff" xlink:href="#hl"/>
<use fill-opacity="0" stroke="#000000" xlink:href="#hl"/>
<use fill="#ffffff" xlink:href="#ll"/>
<use fill-opacity="0" stroke="#000000" xlink:href="#ll"/>
<use fill="#ffffff" xlink:href="#fu"/>
<use fill-opacity="0" stroke="#000000" xlink:href="#fu"/>
<use fill="#ffffff" xlink:href="#gb"/>
<use fill-opacity="0" stroke="#000000" xlink:href="#gb"/>
<use fill="#ffffff" xlink:href="#kq"/>
<use fill-opacity="0" stroke="#000000" xlink:href="#kq"/>
<use fill="#ffffff" xlink:href="#cr"/>
<use fill-opacity="0" stroke="#000000" xlink:href="#cr"/>
<use fill="#ffffff" xlink:href="#dc"/>
<use fill-opacity="0" stroke="#000000" xlink:href="#dc"/>
<use fill="#ffffff" xlink:href="#ju"/>
<use fill-opacity="0" stroke="#000000" xlink:href="#ju"/>
<use fill="#ffffff" xlink:href="#dq"/>
<use fill-opacity="0" stroke="#000000" xlink:href="#dq"/>
<use fill="#ffffff" xlink:href="#bt"/>
<use fill-opacity="0" stroke="#000000" xlink:href="#bt"/>
<use fill="#ffffff" xlink:href="#ce"/>
<use fill-opacity="0" stroke="#000000" xlink:href="#ce"/>
<use fill="#ffffff" xlink:href="#cd"/>
<use fill-opacity="0" stroke="#000000" xlink:href="#cd"/>
<use fill="#ffffff" xlink:href="#aq"/>
<use fill-opacity="0" stroke="#000000" xlink:href="#aq"/>
<use fill="#ffffff" xlink:href="#kt"/>
<use fill-opacity="0" stroke="#000000" xlink:href="#kt"/>
<use fill="#ffffff" xlink:href="#ek"/>
<use fill-opacity="0" stroke="#000000" xlink:href="#ek"/>
<use fill="#ffffff" xlink:href="#ba"/>
<use fill-opacity="0" stroke="#000000" xlink:href="#ba"/>
<use fill="#ffffff" xlink:href="#gy"/>
<use fill-opacity="0" stroke="#000000" xlink:href="#gy"/>
<use fill="#ffffff" xlink:href="#lc"/>
<use fill-opacity="0" stroke="#000000" xlink:href="#lc"/>
<use fill="#ffffff" xlink:href="#iq"/>
<use fill-opacity="0" stroke="#000000" xlink:href="#iq"/>
<use fill="#ffffff" xlink:href="#n"/>
<use fill-opacity="0" stroke="#000000" xlink:href="#n"/>
<use fill="#ffffff" xlink:href="#fg"/>
<use fill-opacity="0" stroke="#000000" xlink:href="#fg"/>
<use fill="#ffffff" xlink:href="#ke"/>
<use fill-opacity="0" stroke="#000000" xlink:href="#ke"/>
<use fill="#ffffff" xlink:href="#km"/>
<use fill-opacity="0" stroke="#000000" xlink:href="#km"/>
<use fill="#ffffff" xlink:href="#fz"/>
<use fill-opacity="0" stroke="#000000" xlink:href="#fz"/>
<use fill="#ffffff" xlink:href="#ge"/>
<use fill-opacity="0" stroke="#000000" xlink:href="#ge"/>
<use fill="#ffffff" xlink:href="#dd"/>
<use fill-opacity="0" stroke="#000000" xlink:href="#dd"/>
<use fill="#ffffff" xlink:href="#ln"/>
<use fill-opacity="0" stroke="#000000" xlink:href="#ln"/>
<use fill="#ffffff" xlink:href="#gk"/>
<use fill-opacity="0" stroke="#000000" xlink:href="#gk"/>
<use fill="#ffffff" xlink:href="#lg"/>
<use fill-opacity="0" stroke="#000000" xlink:href="#lg"/>
<use fill="#ffffff" xlink:href="#i"/>
<use fill-opacity="0" stroke="#000000" xlink:href="#i"/>
<use fill="#ffffff" xlink:href="#ah"/>
<use fill-opacity="0" stroke="#000000" xlink:href="#ah"/>
<use fill="#ffffff" xlink:href="#lk"/>
<use fill-opacity="0" stroke="#000000" xlink:href="#lk"/>
<use fill="#ffffff" xlink:href="#ey"/>
<use fill-opacity="0" stroke="#000000" xlink:href="#ey"/>
<use fill="#ffffff" xlink:href="#as"/>
<use fill-opacity="0" stroke="#000000" xlink:href="#as"/>
<use fill="#ffffff" xlink:href="#fn"/>
<use fill-opacity="0" stroke="#000000" xlink:href="#fn"/>
<use fill="#ffffff" xlink:href="#au"/>
<use fill-opacity="0" stroke="#000000" xlink:href="#au"/>
<use fill="#ffffff" xlink:href="#gj"/>
<use fill-opacity="0" stroke="#000000" xlink:href="#gj"/>
<use fill="#ffffff" xlink:href="#hm"/>
<use fill-opacity="0" stroke="#000000" xlink:href="#hm"/>
<use fill="#ffffff" xlink:href="#li"/>
<use fill-opacity="0" stroke="#000000" xlink:href="#li"/>
<use fill="#ffffff" xlink:href="#ha"/>
<use fill-opacity="0" stroke="#000000" xlink:href="#ha"/>
<use fill="#ffffff" xlink:href="#ib"/>
<use fill-opacity="0" stroke="#000000" xlink:href="#ib"/>
<use fill="#ffffff" xlink:href="#cn"/>
<use fill-opacity="0" stroke="#000000" xlink:href="#cn"/>
<use fill="#ffffff" xlink:href="#by"/>
<use fill-opacity="0" stroke="#000000" xlink:href="#by"/>
<use fill="#ffffff" xlink:href="#eu"/>
<use fill-opacity="0" stroke="#000000" xlink:href="#eu"/>
<use fill="#ffffff" xlink:href="#ej"/>
<use fill-opacity="0" stroke="#000000" xlink:href="#ej"/>
<use fill="#ffffff" xlink:href="#hu"/>
<use fill-opacity="0" stroke="#000000" xlink:href="#hu"/>
<use fill="#ffffff" xlink:href="#cx"/>
<use fill-opacity="0" stroke="#000000" xlink:href="#cx"/>
<use fill="#ffffff" xlink:href="#fl"/>
<use fill-opacity="0" stroke="#000000" xlink:href="#fl"/>
<use fill="#ffffff" xlink:href="#kb"/>
<use fill-opacity="0" stroke="#000000" xlink:href="#kb"/>
<use fill="#ffffff" xlink:href="#bl"/>
<use fill-opacity="0" stroke="#000000" xlink:href="#bl"/>
<use fill="#ffffff" xlink:href="#jn"/>
<use fill-opacity="0" stroke="#000000" xlink:href="#jn"/>
<use fill="#ffffff" xlink:href="#ir"/>
<use fill-opacity="0" stroke="#000000" xlink:href="#ir"/>
<use fill="#ffffff" xlink:href="#iw"/>
<use fill-opacity="0" stroke="#000000" xlink:href="#iw"/>
<use fill="#ffffff" xlink:href="#ae"/>
<use fill-opacity="0" stroke="#000000" xlink:href="#ae"/>
<use fill="#ffffff" xlink:href="#bj"/>
<use fill-opacity="0" stroke="#000000" xlink:href="#bj"/>
<use fill="#ffffff" xlink:href="#ei"/>
<use fill-opacity="0" stroke="#000000" xlink:href="#ei"/>
<use fill="#ffffff" xlink:href="#lq"/>
<use fill-opacity="0" stroke="#000000" xlink:href="#lq"/>
<use fill="#ffffff" xlink:href="#le"/>
<use fill-opacity="0" stroke="#000000" xlink:href="#le"/>
<use fill="#ffffff" xlink:href="#kg"/>
<use fill-opacity="0" stroke="#000000" xlink:href="#kg"/>
<use fill="#ffffff" xlink:href="#jm"/>
<use fill-opacity="0" stroke="#000000" xlink:href="#jm"/>
<use fill="#ffffff" xlink:href="#a"/>
<use fill-opacity="0" stroke="#000000" xlink:href="#a"/>
<use fill="#ffffff" xlink:href="#ho"/>
<use fill-opacity="0" stroke="#000000" xlink:href="#ho"/>
<use fill="#ffffff" xlink:href="#hq"/>
<use fill-opacity="0" stroke="#000000" xlink:href="#hq"/>
<use fill="#ffffff" xlink:href="#hy"/>
<use fill-opacity="0" stroke="#000000" xlink:href="#hy"/>
<use fill="#ffffff" xlink:href="#e"/>
<use fill-opacity="0" stroke="#000000" xlink:href="#e"/>
<use fill="#ffffff" xlink:href="#en"/>
<use fill-opacity="0" stroke="#000000" xlink:href="#en"/>
<use fill="#ffffff" xlink:href="#v"/>
<use fill-opacity="0" stroke="#000000" xlink:href="#v"/>
<use fill="#ffffff" xlink:href="#jp"/>
<use fill-opacity="0" stroke="#000000" xlink:href="#jp"/>
<use fill="#ffffff" xlink:href="#f"/>
<use fill-opacity="0" stroke="#000000" xlink:href="#f"/>
<use fill="#ffffff" xlink:href="#hj"/>
<use fill-opacity="0" stroke="#000000" xlink:href="#hj"/>
<use fill="#ffffff" xlink:href="#o"/>
<use fill-opacity="0" stroke="#000000" xlink:href="#o"/>
<use fill="#ffffff" xlink:href="#ix"/>
<use fill-opacity="0" stroke="#000000" xlink:href="#ix"/>
<use fill="#ffffff" xlink:href="#id"/>
<use fill-opacity="0" stroke="#000000" xlink:href="#id"/>
<use fill="#ffffff" xlink:href="#bf"/>
<use fill-opacity="0" stroke="#000000" xlink:href="#bf"/>
<use fill="#ffffff" xlink:href="#ki"/>
<use fill-opacity="0" stroke="#000000" xlink:href="#ki"/>
<use fill="#ffffff" xlink:href="#em"/>
<use fill-opacity="0" stroke="#000000" xlink:href="#em"/>
<use fill="#ffffff" xlink:href="#jo"/>
<use fill-opacity="0" stroke="#000000" xlink:href="#jo"/>
<use fill="#ffffff" xlink:href="#di"/>
<use fill-opacity="0" stroke="#000000" xlink:href="#di"/>
<use fill="#ffffff" xlink:href="#q"/>
<use fill-opacity="0" stroke="#000000" xlink:href="#q"/>
<use fill="#ffffff" xlink:href="#do"/>
<use fill-opacity="0" stroke="#000000" xlink:href="#do"/>
<use fill="#ffffff" xlink:href="#fx"/>
<use fill-opacity="0" stroke="#000000" xlink:href="#fx"/>
<use fill="#ffffff" xlink:href="#lw"/>
<use fill-opacity="0" stroke="#000000" xlink:href="#lw"/>
<use fill="#ffffff" xlink:href="#bz"/>
<use fill-opacity="0" stroke="#000000" xlink:href="#bz"/>
<use fill="#ffffff" xlink:href="#cg"/>
<use fill-opacity="0" stroke="#000000" xlink:href="#cg"/>
<use fill="#ffffff" xlink:href="#bp"/>
<use fill-opacity="0" stroke="#000000" xlink:href="#bp"/>
<use fill="#ffffff" xlink:href="#bb"/>
<use fill-opacity="0" stroke="#000000" xlink:href="#bb"/>
<use fill="#ffffff" xlink:href="#fh"/>
<use fill-opacity="0" stroke="#000000" xlink:href="#fh"/>
<use fill="#ffffff" xlink:href="#fy"/>
<use fill-opacity="0" stroke="#000000" xlink:href="#fy"/>
<use fill="#ffffff" xlink:href="#lx"/>
<use fill-opacity="0" stroke="#000000" xlink:href="#lx"/>
<use fill="#ffffff" xlink:href="#ig"/>
<use fill-opacity="0" stroke="#000000" xlink:href="#ig"/>
<use fill="#ffffff" xlink:href="#m"/>
<use fill-opacity="0" stroke="#000000" xlink:href="#m"/>
<use fill="#ffffff" xlink:href="#lt"/>
<use fill-opacity="0" stroke="#000000" xlink:href="#lt"/>
<use fill="#ffffff" xlink:href="#eg"/>
<use fill-opacity="0" stroke="#000000" xlink:href="#eg"/>
<use fill="#ffffff" xlink:href="#ky"/>
<use fill-opacity="0" stroke="#000000" xlink:href="#ky"/>
<use fill="#ffffff" xlink:href="#il"/>
<use fill-opacity="0" stroke="#000000" xlink:href="#il"/>
<use fill="#ffffff" xlink:href="#ao"/>
<use fill-opacity="0" stroke="#000000" xlink:href="#ao"/>
<use fill="#ffffff" xlink:href="#cu"/>
<use fill-opacity="0" stroke="#000000" xlink:href="#cu"/>
<use fill="#ffffff" xlink:href="#hs"/>
<use fill-opacity="0" stroke="#000000" xlink:href="#hs"/>
<use fill="#ffffff" xlink:href="#ew"/>
<use fill-opacity="0" stroke="#000000" xlink:href="#ew"/>
<use fill="#ffffff" xlink:href="#bd"/>
<use fill-opacity="0" stroke="#000000" xlink:href="#bd"/>
<use fill="#ffffff" xlink:href="#ds"/>
<use fill-opacity="0" stroke="#000000" xlink:href="#ds"/>
<use fill="#ffffff" xlink:href="#bs"/>
<use fill-opacity="0" stroke="#000000" xlink:href="#bs"/>
<use fill="#ffffff" xlink:href="#db"/>
<use fill-opacity="0" stroke="#000000" xlink:href="#db"/>
<use fill="#ffffff" xlink:href="#gq"/>
<use fill-opacity="0" stroke="#000000" xlink:href="#gq"/>
<use fill="#ffffff" xlink:href="#cw"/>
<use fill-opacity="0" stroke="#000000" xlink:href="#cw"/>
<use fill="#ffffff" xlink:href="#fc"/>
<use fill-opacity="0" stroke="#000000" xlink:href="#fc"/>
<use fill="#ffffff" xlink:href="#bh"/>
<use fill-opacity="0" stroke="#000000" xlink:href="#bh"/>
<use fill="#ffffff" xlink:href="#dk"/>
<use fill-opacity="0" stroke="#000000" xlink:href="#dk"/>
<use fill="#ffffff" xlink:href="#at"/>
<use fill-opacity="0" stroke="#000000" xlink:href="#at"/>
<use fill="#ffffff" xlink:href="#fd"/>
<use fill-opacity="0" stroke="#000000" xlink:href="#fd"/>
<use fill="#ffffff" xlink:href="#bx"/>
<use fill-opacity="0" stroke="#000000" xlink:href="#bx"/>
<use fill="#ffffff" xlink:href="#bv"/>
<use fill-opacity="0" stroke="#000000" xlink:href="#bv"/>
<use fill="#ffffff" xlink:href="#gn"/>
<use fill-opacity="0" stroke="#000000" xlink:href="#gn"/>
<use fill="#ffffff" xlink:href="#ii"/>
<use fill-opacity="0" stroke="#000000" xlink:href="#ii"/>
<use fill="#ffffff" xlink:href="#dt"/>
<use fill-opacity="0" stroke="#000000" xlink:href="#dt"/>
<use fill="#ffffff" xlink:href="#ko"/>
<use fill-opacity="0" stroke="#000000" xlink:href="#ko"/>
<use fill="#ffffff" xlink:href="#dr"/>
<use fill-opacity="0" stroke="#000000" xlink:href="#dr"/>
<use fill="#ffffff" xlink:href="#iv"/>
<use fill-opacity="0" stroke="#000000" xlink:href="#iv"/>
<use fill="#ffffff" xlink:href="#ci"/>
<use fill-opacity="0" stroke="#000000" xlink:href="#ci"/>
<use fill="#ffffff" xlink:href="#fm"/>
<use fill-opacity="0" stroke="#000000" xlink:href="#fm"/>
<use fill="#ffffff" xlink:href="#ca"/>
<use fill-opacity="0" stroke="#000000" xlink:href="#ca"/>
<use fill="#ffffff" xlink:href="#jq"/>
<use fill-opacity="0" stroke="#000000" xlink:href="#jq"/>
<use fill="#ffffff" xlink:href="#gl"/>
<use fill-opacity="0" stroke="#000000" xlink:href="#gl"/>
<use fill="#ffffff" xlink:href="#gv"/>
<use fill-opacity="0" stroke="#000000" xlink:href="#gv"/>
<use fill="#ffffff" xlink:href="#bo"/>
<use fill-opacity="0" stroke="#000000" xlink:href="#bo"/>
<use fill="#ffffff" xlink:href="#w"/>
<use fill-opacity="0" stroke="#000000" xlink:href="#w"/>
<use fill="#ffffff" xlink:href="#ip"/>
<use fill-opacity="0" stroke="#000000" xlink:href="#ip"/>
<use fill="#ffffff" xlink:href="#jl"/>
<use fill-opacity="0" stroke="#000000" xlink:href="#jl"/>
<use fill="#ffffff" xlink:href="#aj"/>
<use fill-opacity="0" stroke="#000000" xlink:href="#aj"/>
<use fill="#ffffff" xlink:href="#bu"/>
<use fill-opacity="0" stroke="#000000" xlink:href="#bu"/>
<use fill="#ffffff" xlink:href="#cc"/>
<use fill-opacity="0" stroke="#000000" xlink:href="#cc"/>
<use fill="#ffffff" xlink:href="#ff"/>
<use fill-opacity="0" stroke="#000000" xlink:href="#ff"/>
<use fill="#ffffff" xlink:href="#cj"/>
<use fill-opacity="0" stroke="#000000" xlink:href="#cj"/>
<use fill="#ffffff" xlink:href="#ct"/>
<use fill-opacity="0" stroke="#000000" xlink:href="#ct"/>
<use fill="#ffffff" xlink:href="#ag"/>
<use fill-opacity="0" stroke="#000000" xlink:href="#ag"/>
<use fill="#ffffff" xlink:href="#gp"/>
<use fill-opacity="0" stroke="#000000" xlink:href="#gp"/>
<use fill="#ffffff" xlink:href="#fk"/>
<use fill-opacity="0" stroke="#000000" xlink:href="#fk"/>
<use fill="#ffffff" xlink:href="#lz"/>
<use fill-opacity="0" stroke="#000000" xlink:href="#lz"/>
<use fill="#ffffff" xlink:href="#ef"/>
<use fill-opacity="0" stroke="#000000" xlink:href="#ef"/>
<use fill="#ffffff" xlink:href="#gx"/>
<use fill-opacity="0" stroke="#000000" xlink:href="#gx"/>
<use fill="#ffffff" xlink:href="#dm"/>
<use fill-opacity="0" stroke="#000000" xlink:href="#dm"/>
<use fill="#ffffff" xlink:href="#ac"/>
<use fill-opacity="0" stroke="#000000" xlink:href="#ac"/>
<use fill="#ffffff" xlink:href="#j"/>
<use fill-opacity="0" stroke="#000000" xlink:href="#j"/>
<use fill="#ffffff" xlink:href="#dx"/>
<use fill-opacity="0" stroke="#000000" xlink:href="#dx"/>
<use fill="#ffffff" xlink:href="#df"/>
<use fill-opacity="0" stroke="#000000" xlink:href="#df"/>
<use fill="#ffffff" xlink:href="#r"/>
<use fill-opacity="0" stroke="#000000" xlink:href="#r"/>
<use fill="#ffffff" xlink:href="#c"/>
<use fill-opacity="0" stroke="#000000" xlink:href="#c"/>
<use fill="#ffffff" xlink:href="#jj"/>
<use fill-opacity="0" stroke="#000000" xlink:href="#jj"/>
<use fill="#ffffff" xlink:href="#ch"/>
<use fill-opacity="0" stroke="#000000" xlink:href="#ch"/>
<use fill="#ffffff" xlink:href="#kc"/>
<use fill-opacity="0" stroke="#000000" xlink:href="#kc"/>
<use fill="#ffffff" xlink:href="#hh"/>
<use fill-opacity="0" stroke="#000000" xlink:href="#hh"/>
<use fill="#ffffff" xlink:href="#hr"/>
<use fill-opacity="0" stroke="#000000" xlink:href="#hr"/>
<use fill="#ffffff" xlink:href="#l"/>
<use fill-opacity="0" stroke="#000000" xlink:href="#l"/>
<use fill="#ffffff" xlink:href="#he"/>
<use fill-opacity="0" stroke="#000000" xlink:href="#he"/>
<use fill="#ffffff" xlink:href="#jw"/>
<use fill-opacity="0" stroke="#000000" xlink:href="#jw"/>
<use fill="#ffffff" xlink:href="#lp"/>
<use fill-opacity="0" stroke="#000000" xlink:href="#lp"/>
<use fill="#ffffff" xlink:href="#ev"/>
<use fill-opacity="0" stroke="#000000" xlink:href="#ev"/>
<use fill="#ffffff" xlink:href="#ht"/>
<use fill-opacity="0" stroke="#000000" xlink:href="#ht"/>
<use fill="#ffffff" xlink:href="#cy"/>
<use fill-opacity="0" stroke="#000000" xlink:href="#cy"/>
<use fill="#ffffff" xlink:href="#ck"/>
<use fill-opacity="0" stroke="#000000" xlink:href="#ck"/>
<use fill="#ffffff" xlink:href="#gf"/>
<use fill-opacity="0" stroke="#000000" xlink:href="#gf"/>
<use fill="#ffffff" xlink:href="#dw"/>
<use fill-opacity="0" stroke="#000000" xlink:href="#dw"/>
<use fill="#ffffff" xlink:href="#jk"/>
<use fill-opacity="0" stroke="#000000" xlink:href="#jk"/>
<use fill="#ffffff" xlink:href="#cb"/>
<use fill-opacity="0" stroke="#000000" xlink:href="#cb"/>
<use fill="#ffffff" xlink:href="#fs"/>
<use fill-opacity="0" stroke="#000000" xlink:href="#fs"/>
<use fill="#ffffff" xlink:href="#bq"/>
<use fill-opacity="0" stroke="#000000" xlink:href="#bq"/>
<use fill="#ffffff" xlink:href="#an"/>
<use fill-opacity="0" stroke="#000000" xlink:href="#an"/>
<use fill="#ffffff" xlink:href="#cl"/>
<use fill-opacity="0" stroke="#000000" xlink:href="#cl"/>
<use fill="#ffffff" xlink:href="#ar"/>
<use fill-opacity="0" stroke="#000000" xlink:href="#ar"/>
<use fill="#ffffff" xlink:href="#hd"/>
<use fill-opacity="0" stroke="#000000" xlink:href="#hd"/>
<use fill="#ffffff" xlink:href="#bk"/>
<use fill-opacity="0" stroke="#000000" xlink:href="#bk"/>
<use fill="#ffffff" xlink:href="#ai"/>
<use fill-opacity="0" stroke="#000000" xlink:href="#ai"/>
<use fill="#ffffff" xlink:href="#cm"/>
<use fill-opacity="0" stroke="#000000" xlink:href="#cm"/>
<use fill="#ffffff" xlink:href="#ad"/>
<use fill-opacity="0" stroke="#000000" xlink:href="#ad"/>
<use fill="#ffffff" xlink:href="#du"/>
<use fill-opacity="0" stroke="#000000" xlink:href="#du"/>
<use fill="#ffffff" xlink:href="#jt"/>
<use fill-opacity="0" stroke="#000000" xlink:href="#jt"/>
<use fill="#ffffff" xlink:href="#hg"/>
<use fill-opacity="0" stroke="#000000" xlink:href="#hg"/>
<use fill="#ffffff" xlink:href="#kd"/>
<use fill-opacity="0" stroke="#000000" xlink:href="#kd"/>
<use fill="#ffffff" xlink:href="#dl"/>
<use fill-opacity="0" stroke="#000000" xlink:href="#dl"/>
<use fill="#ffffff" xlink:href="#jb"/>
<use fill-opacity="0" stroke="#000000" xlink:href="#jb"/>
<use fill="#ffffff" xlink:href="#dg"/>
<use fill-opacity="0" stroke="#000000" xlink:href="#dg"/>
<use fill="#ffffff" xlink:href="#jr"/>
<use fill-opacity="0" stroke="#000000" xlink:href="#jr"/>
<use fill="#ffffff" xlink:href="#jd"/>
<use fill-opacity="0" stroke="#000000" xlink:href="#jd"/>
<use fill="#ffffff" xlink:href="#ks"/>
<use fill-opacity="0" stroke="#000000" xlink:href="#ks"/>
<use fill="#ffffff" xlink:href="#kh"/>
<use fill-opacity="0" stroke="#000000" xlink:href="#kh"/>
<use fill="#ffffff" xlink:href="#ma"/>
<use fill-opacity="0" stroke="#000000" xlink:href="#ma"/>
<use fill="#ffffff" xlink:href="#bi"/>
<use fill-opacity="0" stroke="#000000" xlink:href="#bi"/>
<use fill="#ffffff" xlink:href="#el"/>
<use fill-opacity="0" stroke="#000000" xlink:href="#el"/>
<use fill="#ffffff" xlink:href="#gs"/>
<use fill-opacity="0" stroke="#000000" xlink:href="#gs"/>
<use fill="#ffffff" xlink:href="#g"/>
<use fill-opacity="0" stroke="#000000" xlink:href="#g"/>
<use fill="#ffffff" xlink:href="#al"/>
<use fill-opacity="0" stroke="#000000" xlink:href="#al"/>
<use fill="#ffffff" xlink:href="#ic"/>
<use fill-opacity="0" stroke="#000000" xlink:href="#ic"/>
<use fill="#ffffff" xlink:href="#lf"/>
<use fill-opacity="0" stroke="#000000" xlink:href="#lf"/>
<use fill="#ffffff" xlink:href="#gw"/>
<use fill-opacity="0" stroke="#000000" xlink:href="#gw"/>
<use fill="#ffffff" xlink:href="#y"/>
<use fill-opacity="0" stroke="#000000" xlink:href="#y"/>
<use fill="#ffffff" xlink:href="#fv"/>
<use fill-opacity="0" stroke="#000000" xlink:href="#fv"/>
<use fill="#ffffff" xlink:href="#kf"/>
<use fill-opacity="0" stroke="#000000" xlink:href="#kf"/>
<use fill="#ffffff" xlink:href="#gc"/>
<use fill-opacity="0" stroke="#000000" xlink:href="#gc"/>
<use fill="#ffffff" xlink:href="#if"/>
<use fill-opacity="0" stroke="#000000" xlink:href="#if"/>
<use fill="#ffffff" xlink:href="#kl"/>
<use fill-opacity="0" stroke="#000000" xlink:href="#kl"/>
<use fill="#ffffff" xlink:href="#jh"/>
<use fill-opacity="0" stroke="#000000" xlink:href="#jh"/>
<use fill="#ffffff" xlink:href="#ih"/>
<use fill-opacity="0" stroke="#000000" xlink:href="#ih"/>
<use fill="#ffffff" xlink:href="#b"/>
<use fill-opacity="0" stroke="#000000" xlink:href="#b"/>
<use fill="#ffffff" xlink:href="#im"/>
<use fill-opacity="0" stroke="#000000" xlink:href="#im"/>
<use fill="#ffffff" xlink:href="#ka"/>
<use fill-opacity="0" stroke="#000000" xlink:href="#ka"/>
<use fill="#ffffff" xlink:href="#je"/>
<use fill-opacity="0" stroke="#000000" xlink:href="#je"/>
<use fill="#ffffff" xlink:href="#ik"/>
<use fill-opacity="0" stroke="#000000" xlink:href="#ik"/>
<use fill="#ffffff" xlink:href="#hw"/>
<use fill-opacity="0" stroke="#000000" xlink:href="#hw"/>
<use fill="#ffffff" xlink:href="#kv"/>
<use fill-opacity="0" stroke="#000000" xlink:href="#kv"/>
<use fill="#ffffff" xlink:href="#ly"/>
<use fill-opacity="0" stroke="#000000" xlink:href="#ly"/>
<use fill="#ffffff" xlink:href="#cq"/>
<use fill-opacity="0" stroke="#000000" xlink:href="#cq"/>
<use fill="#ffffff" xlink:href="#lm"/>
<use fill-opacity="0" stroke="#000000" xlink:href="#lm"/>
<use fill="#ffffff" xlink:href="#cf"/>
<use fill-opacity="0" stroke="#000000" xlink:href="#cf"/>
<use fill="#ffffff" xlink:href="#eq"/>
<use fill-opacity="0" stroke="#000000" xlink:href="#eq"/>
<use fill="#ffffff" xlink:href="#t"/>
<use fill-opacity="0" stroke="#000000" xlink:href="#t"/>
<use fill="#ffffff" xlink:href="#gz"/>
<use fill-opacity="0" stroke="#000000" xlink:href="#gz"/>
<use fill="#ffffff" xlink:href="#lb"/>
<use fill-opacity="0" stroke="#000000" xlink:href="#lb"/>
<use fill="#ffffff" xlink:href="#gu"/>
<use fill-opacity="0" stroke="#000000" xlink:href="#gu"/>
<use fill="#ffffff" xlink:href="#iz"/>
<use fill-opacity="0" stroke="#000000" xlink:href="#iz"/>
<use fill="#ffffff" xlink:href="#jx"/>
<use fill-opacity="0" stroke="#000000" xlink:href="#jx"/>
<use fill="#ffffff" xlink:href="#dz"/>
<use fill-opacity="0" stroke="#000000" xlink:href="#dz"/>
<use fill="#ffffff" xlink:href="#gd"/>
<use fill-opacity="0" stroke="#000000" xlink:href="#gd"/>
<use fill="#ffffff" xlink:href="#ee"/>
<use fill-opacity="0" stroke="#000000" xlink:href="#ee"/>
<use fill="#ffffff" xlink:href="#jv"/>
<use fill-opacity="0" stroke="#000000" xlink:href="#jv"/>
<use fill="#ffffff" xlink:href="#kw"/>
<use fill-opacity="0" stroke="#000000" xlink:href="#kw"/>
<use fill="#ffffff" xlink:href="#fr"/>
<use fill-opacity="0" stroke="#000000" xlink:href="#fr"/>
<use fill="#ffffff" xlink:href="#la"/>
<use fill-opacity="0" stroke="#000000" xlink:href="#la"/>
<use fill="#ffffff" xlink:href="#cz"/>
<use fill-opacity="0" stroke="#000000" xlink:href="#cz"/>
<use fill="#ffffff" xlink:href="#ap"/>
<use fill-opacity="0" stroke="#000000" xlink:href="#ap"/>
<use fill="#ffffff" xlink:href="#ja"/>
<use fill-opacity="0" stroke="#000000" xlink:href="#ja"/>
<use fill="#ffffff" xlink:href="#bn"/>
<use fill-opacity="0" stroke="#000000" xlink:href="#bn"/>
<use fill="#ffffff" xlink:href="#eb"/>
<use fill-opacity="0" stroke="#000000" xlink:href="#eb"/>
<use fill="#ffffff" xlink:href="#ld"/>
<use fill-opacity="0" stroke="#000000" xlink:href="#ld"/>
<use fill="#ffffff" xlink:href="#gm"/>
<use fill-opacity="0" stroke="#000000" xlink:href="#gm"/>
<use fill="#ffffff" xlink:href="#kn"/>
<use fill-opacity="0" stroke="#000000" xlink:href="#kn"/>
<use fill="#ffffff" xlink:href="#ie"/>
<use fill-opacity="0" stroke="#000000" xlink:href="#ie"/>
<use fill="#ffffff" xlink:href="#dn"/>
<use fill-opacity="0" stroke="#000000" xlink:href="#dn"/>
<use fill="#ffffff" xlink:href="#ku"/>
<use fill-opacity="0" stroke="#000000" xlink:href="#ku"/>
<use fill="#ffffff" xlink:href="#lu"/>
<use fill-opacity="0" stroke="#000000" xlink:href="#lu"/>
<use fill="#ffffff" xlink:href="#d"/>
<use fill-opacity="0" stroke="#000000" xlink:href="#d"/>
<use fill="#ffffff" xlink:href="#lv"/>
<use fill-opacity="0" stroke="#000000" xlink:href="#lv"/>
<use fill="#ffffff" xlink:href="#cp"/>
<use fill-opacity="0" stroke="#000000" xlink:href="#cp"/>
<use fill="#ffffff" xlink:href="#jc"/>
<use fill-opacity="0" stroke="#000000" xlink:href="#jc"/>
<use fill="#ffffff" xlink:href="#jg"/>
<use fill-opacity="0" stroke="#000000" xlink:href="#jg"/>
<use fill="#ffffff" xlink:href="#gh"/>
<use fill-opacity="0" stroke="#000000" xlink:href="#gh"/>
<use fill="#ffffff" xlink:href="#co"/>
<use fill-opacity="0" stroke="#000000" xlink:href="#co"/>
<use fill="#ffffff" xlink:href="#et"/>
<use fill-opacity="0" stroke="#000000" xlink:href="#et"/>
<use fill="#ffffff" xlink:href="#bw"/>
<use fill-opacity="0" stroke="#000000" xlink:href="#bw"/>
<use fill="#ffffff" xlink:href="#in"/>
<use fill-opacity="0" stroke="#000000" xlink:href="#in"/>
<use fill="#ffffff" xlink:href="#fi"/>
<use fill-opacity="0" stroke="#000000" xlink:href="#fi"/>
<use fill="#ffffff" xlink:href="#s"/>
<use fill-opacity="0" stroke="#000000" xlink:href="#s"/>
<use fill="#ffffff" xlink:href="#x"/>
<use fill-opacity="0" stroke="#000000" xlink:href="#x"/>
<use fill="#ffffff" xlink:href="#ak"/>
<use fill-opacity="0" stroke="#000000" xlink:href="#ak"/>
<use fill="#ffffff" xlink:href="#kj"/>
<use fill-opacity="0" stroke="#000000" xlink:href="#kj"/>
<use fill="#ffffff" xlink:href="#cv"/>
<use fill-opacity="0" stroke="#000000" xlink:href="#cv"/>
<use fill="#ffffff" xlink:href="#gi"/>
<use fill-opacity="0" stroke="#000000" xlink:href="#gi"/>
<use fill="#ffffff" xlink:href="#cs"/>
<use fill-opacity="0" stroke="#000000" xlink:href="#cs"/>
<use fill="#ffffff" xlink:href="#kz"/>
<use fill-opacity="0" stroke="#000000" xlink:href="#kz"/>
<use fill="#ffffff" xlink:href="#am"/>
<use fill-opacity="0" stroke="#000000" xlink:href="#am"/>
<use fill="#ffffff" xlink:href="#go"/>
<use fill-opacity="0" stroke="#000000" xlink:href="#go"/>
<use fill="#ffffff" xlink:href="#er"/>
<use fill-opacity="0" stroke="#000000" xlink:href="#er"/>
<use fill="#ffffff" xlink:href="#k"/>
<use fill-opacity="0" stroke="#000000" xlink:href="#k"/>
<use fill="#ffffff" xlink:href="#jy"/>
<use fill-opacity="0" stroke="#000000" xlink:href="#jy"/>
<use fill="#ffffff" xlink:href="#is"/>
<use fill-opacity="0" stroke="#000000" xlink:href="#is"/>
<use fill="#ffffff" xlink:href="#iy"/>
<use fill-opacity="0" stroke="#000000" xlink:href="#iy"/>
<use fill="#ffffff" xlink:href="#ft"/>
<use fill-opacity="0" stroke="#000000" xlink:href="#ft"/>
<use fill="#ffffff" xlink:href="#ji"/>
<use fill-opacity="0" stroke="#000000" xlink:href="#ji"/>
<use fill="#ffffff" xlink:href="#ax"/>
<use fill-opacity="0" stroke="#000000" xlink:href="#ax"/>
<use fill="#ffffff" xlink:href="#fw"/>
<use fill-opacity="0" stroke="#000000" xlink:href="#fw"/>
<use fill="#ffffff" xlink:href="#iu"/>
<use fill-opacity="0" stroke="#000000" xlink:href="#iu"/>
<use fill="#ffffff" xlink:href="#kk"/>
<use fill-opacity="0" stroke="#000000" xlink:href="#kk"/>
<use fill="#ffffff" xlink:href="#hx"/>
<use fill-opacity="0" stroke="#000000" xlink:href="#hx"/>
<use fill="#ffffff" xlink:href="#gg"/>
<use fill-opacity="0" stroke="#000000" xlink:href="#gg"/>
<use fill="#ffffff" xlink:href="#kp"/>
<use fill-opacity="0" stroke="#000000" xlink:href="#kp"/>
<use fill="#ffffff" xlink:href="#ep"/>
<use fill-opacity="0" stroke="#000000" xlink:href="#ep"/>
<use fill="#ffffff" xlink:href="#js"/>
<use fill-opacity="0" stroke="#000000" xlink:href="#js"/>
<use fill="#ffffff" xlink:href="#z"/>
<use fill-opacity="0" stroke="#000000" xlink:href="#z"/>
<use fill="#ffffff" xlink:href="#aa"/>
<use fill-opacity="0" stroke="#000000" xlink:href="#aa"/>
<use fill="#ffffff" xlink:href="#hf"/>
<use fill-opacity="0" stroke="#000000" xlink:href="#hf"/>
<use fill="#ffffff" xlink:href="#be"/>
<use fill-opacity="0" stroke="#000000" xlink:href="#be"/>
<use fill="#ffffff" xlink:href="#dh"/>
<use fill-opacity="0" stroke="#000000" xlink:href="#dh"/>
<use fill="#ffffff" xlink:href="#eh"/>
<use fill-opacity="0" stroke="#000000" xlink:href="#eh"/>
<use fill="#ffffff" xlink:href="#u"/>
<use fill-opacity="0" stroke="#000000" xlink:href="#u"/>
<use fill="#ffffff" xlink:href="#kx"/>
<use fill-opacity="0" stroke="#000000" xlink:href="#kx"/>
<use fill="#ffffff" xlink:href="#aw"/>
<use fill-opacity="0" stroke="#000000" xlink:href="#aw"/>
<use fill="#ffffff" xlink:href="#ab"/>
<use fill-opacity="0" stroke="#000000" xlink:href="#ab"/>
<use fill="#ffffff" xlink:href="#gr"/>
<use fill-opacity="0" stroke="#000000" xlink:href="#gr"/>
<use fill="#ffffff" xlink:href="#ed"/>
<use fill-opacity="0" stroke="#000000" xlink:href="#ed"/>
<use fill="#ffffff" xlink:href="#br"/>
<use fill-opacity="0" stroke="#000000" xlink:href="#br"/>
<use fill="#ffffff" xlink:href="#dy"/>
<use fill-opacity="0" stroke="#000000" xlink:href="#dy"/>
<use fill="#ffffff" xlink:href="#fb"/>
<use fill-opacity="0" stroke="#000000" xlink:href="#fb"/>
<use fill="#ffffff" xlink:href="#h"/>
<use fill-opacity="0" stroke="#000000" xlink:href="#h"/>
<use fill="#ffffff" xlink:href="#p"/>
<use fill-opacity="0" stroke="#000000" xlink:href="#p"/>
<use fill="#ffffff" xlink:href="#de"/>
<use fill-opacity="0" stroke="#000000" xlink:href="#de"/>
<use fill="#ffffff" xlink:href="#fj"/>
<use fill-opacity="0" stroke="#000000" xlink:href="#fj"/>
<use fill="#ffffff" xlink:href="#es"/>
<use fill-opacity="0" stroke="#000000" xlink:href="#es"/>
<use fill="#ffffff" xlink:href="#lh"/>
<use fill-opacity="0" stroke="#000000" xlink:href="#lh"/>
<use fill="#ffffff" xlink:href="#fa"/>
<use fill-opacity="0" stroke="#000000" xlink:href="#fa"/>
<use fill="#ffffff" xlink:href="#hc"/>
<use fill-opacity="0" stroke="#000000" xlink:href="#hc"/>
<use fill="#ffffff" xlink:href="#eo"/>
<use fill-opacity="0" stroke="#000000" xlink:href="#eo"/>
<use fill="#ffffff" xlink:href="#da"/>
<use fill-opacity="0" stroke="#000000" xlink:href="#da"/>
<use fill="#ffffff" xlink:href="#hv"/>
<use fill-opacity="0" stroke="#000000" xlink:href="#hv"/>
<use fill="#ffffff" xlink:href="#hi"/>
<use fill-opacity="0" stroke="#000000" xlink:href="#hi"/>
<use fill="#ffffff" xlink:href="#dj"/>
<use fill-opacity="0" stroke="#000000" xlink:href="#dj"/>
<use fill="#ffffff" xlink:href="#fq"/>
<use fill-opacity="0" stroke="#000000" xlink:href="#fq"/>
<use fill="#ffffff" xlink:href="#ec"/>
<use fill-opacity="0" stroke="#000000" xlink:href="#ec"/>
<use fill="#ffffff" xlink:href="#ex"/>
<use fill-opacity="0" stroke="#000000" xlink:href="#ex"/>
<use fill="#ffffff" xlink:href="#ay"/>
<use fill-opacity="0" stroke="#000000" xlink:href="#ay"/>
<use fill="#ffffff" xlink:href="#ez"/>
<use fill-opacity="0" stroke="#000000" xlink:href="#ez"/>
<use fill="#ffffff" xlink:href="#bg"/>
<use fill-opacity="0" stroke="#000000" xlink:href="#bg"/>
<use fill="#ffffff" xlink:href="#ls"/>
<use fill-opacity="0" stroke="#000000" xlink:href="#ls"/>
<use fill="#ffffff" xlink:href="#lj"/>
<use fill-opacity="0" stroke="#000000" xlink:href="#lj"/>
<use fill="#ffffff" xlink:href="#hk"/>
<use fill-opacity="0" stroke="#000000" xlink:href="#hk"/>
<use fill="#ffffff" xlink:href="#ea"/>
<use fill-opacity="0" stroke="#000000" xlink:href="#ea"/>
<use fill="#ffffff" xlink:href="#io"/>
<use fill-opacity="0" stroke="#000000" xlink:href="#io"/>
<use fill="#ffffff" xlink:href="#hz"/>
<use fill-opacity="0" stroke="#000000" xlink:href="#hz"/>
<use fill="#ffffff" xlink:href="#hn"/>
<use fill-opacity="0" stroke="#000000" xlink:href="#hn"/>
<use fill="#ffffff" xlink:href="#it"/>
<use fill-opacity="0" stroke="#000000" xlink:href="#it"/>
<use fill="#ffffff" xlink:href="#fo"/>
<use fill-opacity="0" stroke="#000000" xlink:href="#fo"/>
<use fill="#ffffff" xlink:href="#lo"/>
<use fill-opacity="0" stroke="#000000" xlink:href="#lo"/>
<use fill="#ffffff" xlink:href="#af"/>
<use fill-opacity="0" stroke="#000000" xlink:href="#af"/>
<use fill="#ffffff" xlink:href="#dv"/>
<use fill-opacity="0" stroke="#000000" xlink:href="#dv"/>
<use fill="#ffffff" xlink:href="#lr"/>
<use fill-opacity="0" stroke="#000000" xlink:href="#lr"/>
<use fill="#ffffff" xlink:href="#mc"/>
<use fill="#ffffff" xlink:href="#no"/>
<use fill="#ffffff" xlink:href="#ng"/>
<use fill="#ffffff" xlink:href="#mf"/>
<use fill="#ffffff" xlink:href="#oe"/>
<use fill="#ffffff" xlink:href="#mr"/>
<use fill="#ffffff" xlink:href="#nr"/>
<use fill="#ffffff" xlink:href="#ns"/>
<use fill="#ffffff" xlink:href="#nf"/>
<use fill="#ffffff" xlink:href="#od"/>
<use fill="#ffffff" xlink:href="#nx"/>
<use fill="#ffffff" xlink:href="#nu"/>
<use fill="#ffffff" xlink:href="#mh"/>
<use fill="#ffffff" xlink:href="#mq"/>
<use fill="#ffffff" xlink:href="#ml"/>
<use fill="#ffffff" xlink:href="#av"/>
<use fill-opacity="0" stroke="#020202" xlink:href="#av"/>
</svg>
